<svg xmlns="http://www.w3.org/2000/svg" viewBox="0 0 133.44 133.44"><defs><style>.cls-1{fill:#0f1014;}.cls-2,.cls-3{fill:#ffe9a0;}.cls-3{stroke:#000;stroke-miterlimit:10;stroke-width:2px;}</style></defs><g id="Layer_2" data-name="Layer 2"><g id="Layer_1-2" data-name="Layer 1"><g id="Layer_1-2-2" data-name="Layer 1-2"><g id="Layer_1-2-2-2" data-name="Layer 1-2-2"><circle class="cls-1" cx="66.72" cy="66.72" r="66.72"/></g></g><circle class="cls-2" cx="66.68" cy="66.72" r="25.44"/><rect class="cls-2" x="66.76" y="28.13" width="1.32" height="10.55"/><rect class="cls-2" x="66.09" y="94.76" width="1.32" height="10.55"/><rect class="cls-2" x="74.51" y="29.36" width="1.32" height="10.55" transform="translate(10.58 -17.12) rotate(13.97)"/><rect class="cls-2" x="81.56" y="31.83" width="1.32" height="10.55" transform="translate(23.99 -31.79) rotate(25.51)"/><rect class="cls-2" x="87.57" y="36" width="1.32" height="10.55" transform="translate(36.43 -41.22) rotate(32.8)"/><rect class="cls-2" x="92.64" y="41.54" width="1.32" height="10.55" transform="translate(56.19 -50.75) rotate(42.53)"/><rect class="cls-2" x="96.21" y="47.84" width="1.32" height="10.55" transform="translate(94.43 -57.33) rotate(60)"/><rect class="cls-2" x="98.71" y="54.52" width="1.32" height="10.55" transform="translate(131.35 -51.68) rotate(74.97)"/><rect class="cls-2" x="98.93" y="68.91" width="1.32" height="10.55" transform="translate(192.84 -7.82) rotate(101.99)"/><rect class="cls-2" x="96.71" y="76.03" width="1.32" height="10.55" transform="translate(210.79 24.5) rotate(113.53)"/><rect class="cls-2" x="92.74" y="82.18" width="1.32" height="10.55" transform="translate(216.37 52.07) rotate(120.83)"/><rect class="cls-2" x="87.38" y="87.45" width="1.32" height="10.55" transform="translate(215.73 86.11) rotate(130.55)"/><rect class="cls-2" x="81.21" y="91.22" width="1.32" height="10.55" transform="translate(202.42 135.01) rotate(148.02)"/><rect class="cls-2" x="74.62" y="93.96" width="1.32" height="10.55" transform="translate(176.29 172.11) rotate(162.99)"/><rect class="cls-2" x="58.33" y="94.01" width="1.32" height="10.55" transform="translate(94.51 209.18) rotate(-167.2)"/><rect class="cls-2" x="51.24" y="91.69" width="1.32" height="10.55" transform="translate(59.2 206.71) rotate(-155.66)"/><rect class="cls-2" x="45.14" y="87.64" width="1.32" height="10.55" transform="translate(36.05 196.05) rotate(-148.36)"/><rect class="cls-2" x="39.95" y="82.21" width="1.32" height="10.55" transform="translate(13.29 179.98) rotate(-138.64)"/><rect class="cls-2" x="36.26" y="75.98" width="1.32" height="10.55" transform="translate(-13.5 154.9) rotate(-121.16)"/><rect class="cls-2" x="33.62" y="69.35" width="1.32" height="10.55" transform="translate(-27.82 128.37) rotate(-106.2)"/><rect class="cls-2" x="33.86" y="53.5" width="1.32" height="10.55" transform="translate(-30.84 78.14) rotate(-76.07)"/><rect class="cls-2" x="36.32" y="46.46" width="1.32" height="10.55" transform="translate(-25.63 62.87) rotate(-64.53)"/><rect class="cls-2" x="40.49" y="40.44" width="1.32" height="10.55" transform="translate(-19.57 55.58) rotate(-57.23)"/><rect class="cls-2" x="46.03" y="35.37" width="1.32" height="10.55" transform="translate(-14.82 47.62) rotate(-47.51)"/><rect class="cls-2" x="52.33" y="31.8" width="1.32" height="10.55" transform="translate(-11.44 31.5) rotate(-30.04)"/><rect class="cls-2" x="59.01" y="29.29" width="1.32" height="10.55" transform="translate(-6.93 16.7) rotate(-15.07)"/><rect class="cls-2" x="99.4" y="60.78" width="1.32" height="10.55" transform="translate(166.12 -34) rotate(90)"/><rect class="cls-2" x="32.65" y="60.78" width="1.32" height="10.55" transform="translate(99.37 32.75) rotate(90)"/><path class="cls-3" d="M113.27,92.49a9.64,9.64,0,0,0-9-6.21c-1.28,0-2.53.26-3.32-1.09,0-.07-.12-.09-.19-.14a18.41,18.41,0,0,0-7.78-3.71.87.87,0,0,1-.77-.79,25.25,25.25,0,0,0-1.23-4.22A21.16,21.16,0,0,0,76,63.84c-1.2-.3-2.45-.42-3.68-.63H69.12a5.72,5.72,0,0,1-.67.14,21.4,21.4,0,0,0-11.82,4.89,20.31,20.31,0,0,0-6.32,8.63,8.15,8.15,0,0,0-7,.72,7.8,7.8,0,0,0-3.93,5.6c-2,.1-3.8.1-5.61.32A14.88,14.88,0,0,0,24,88.78a9.7,9.7,0,0,0,.29,12.86c4.14,4.36,9.34,5.61,15.12,4.94a44.41,44.41,0,0,0,5-1.11,29.75,29.75,0,0,0,2,2.67,11.47,11.47,0,0,0,15.7,1.18c.57-.45.94-.74,1.71-.43a13.82,13.82,0,0,0,9,.46,45.84,45.84,0,0,0,4.39-1.66,34.14,34.14,0,0,0,3.2,2.12A20,20,0,0,0,84,111.32a37.67,37.67,0,0,0,3.72.75h2.6c.17,0,.35-.1.53-.12a16.47,16.47,0,0,0,11.31-5.39c.94-1,1.76-1.89,3.28-1.59.21,0,.45-.08.67-.12A9.41,9.41,0,0,0,113.27,92.49Zm-7.37,11a10.14,10.14,0,0,1-2.13.16,1.71,1.71,0,0,0-1.58.75,15.31,15.31,0,0,1-11.3,6.19A16.5,16.5,0,0,1,79,107.32c-.63-.48-1.19-1-1.61-1.39A42.75,42.75,0,0,1,72.3,108a12.75,12.75,0,0,1-8.62-.65,1.38,1.38,0,0,0-1.83.31,9.7,9.7,0,0,1-6.76,2.8,9.82,9.82,0,0,1-7.64-3.27A32.5,32.5,0,0,1,45,103.66a42.9,42.9,0,0,1-4.9,1.4c-5.41.89-10.44,0-14.46-4-3.71-3.73-3.52-9.27.84-12.9,3.75-3.11,8.11-3.9,12.79-3.32a2.71,2.71,0,0,0,.4,0h1a6.77,6.77,0,0,1,3.46-6.09,6.69,6.69,0,0,1,7,0c.18-.41.31-.77.47-1.14,3-7.44,8.58-11.65,16.38-12.81A19.9,19.9,0,0,1,84,69.32a18.9,18.9,0,0,1,6.74,11,3.3,3.3,0,0,1,.14.91c-.07,1,.44,1.21,1.28,1.38a17.76,17.76,0,0,1,8,3.71s0,0,0,.06c.86,1.48,2.18,1.45,3.7,1.31a8.27,8.27,0,0,1,8.36,6.14A8.07,8.07,0,0,1,105.9,103.45Z"/><path class="cls-3" d="M106.11,104.85c-.22,0-.46.17-.67.12-1.52-.3-2.34.57-3.28,1.59A16.47,16.47,0,0,1,90.85,112c-.18,0-.36.09-.53.12h-2.6a37.67,37.67,0,0,1-3.72-.75,20,20,0,0,1-3.68-1.51,34.14,34.14,0,0,1-3.2-2.12,45.84,45.84,0,0,1-4.39,1.66,13.82,13.82,0,0,1-9-.46c-.77-.31-1.14,0-1.71.43a11.47,11.47,0,0,1-15.7-1.18,29.75,29.75,0,0,1-2-2.67,44.41,44.41,0,0,1-5,1.11c-5.78.67-11-.58-15.12-4.94A9.7,9.7,0,0,1,24,88.78a14.88,14.88,0,0,1,9.87-5.27c1.81-.22,3.66-.22,5.61-.32a7.8,7.8,0,0,1,3.93-5.6,8.15,8.15,0,0,1,7-.72,20.31,20.31,0,0,1,6.32-8.63,21.4,21.4,0,0,1,11.82-4.89,5.72,5.72,0,0,0,.67-.14h3.23c1.23.21,2.48.33,3.68.63A21.16,21.16,0,0,1,90.94,76.33a25.25,25.25,0,0,1,1.23,4.22.87.87,0,0,0,.77.79,18.41,18.41,0,0,1,7.78,3.71c.07,0,.16.07.19.14.79,1.35,2,1.14,3.32,1.09a9.64,9.64,0,0,1,9,6.21A9.41,9.41,0,0,1,106.11,104.85Z"/></g></g></svg>