<svg xmlns="http://www.w3.org/2000/svg" viewBox="0 0 133.45 133.45"><defs><style>.cls-1{fill:#0f1014;}.cls-2{fill:#ffe9a0;}.cls-3{fill:none;stroke:#ffe9a0;stroke-miterlimit:10;}</style></defs><g id="Layer_2" data-name="Layer 2"><g id="Layer_1-2" data-name="Layer 1"><circle class="cls-1" cx="66.72" cy="66.72" r="66.72"/><path class="cls-2" d="M32.9,89.85h0a1.34,1.34,0,0,0,.66.22,1.62,1.62,0,0,0,.85-.22h0s4.06-12.43,3.9-16.61-3.9-12.46-3.9-16.61S37.81,44.5,38,40.42c.2-4.27-2.57-12.75-3.82-17h0l-2.65-5.91L32.9,23.4h0s3.9,12.49,3.9,16.66-3.86,12.4-3.9,16.57,3.71,12.66,3.69,16.91C36.58,77.64,34.12,85.79,32.9,89.85Z"/><path class="cls-2" d="M36.51,63.35c.13.2.23.38.35.55s.09,0,.14,0a5.13,5.13,0,0,0,1.46-.43c.38-.16.75-.35,1.12-.53a1.32,1.32,0,0,1,.71-.11l.56,0a5.19,5.19,0,0,0,2.51-.3c.43-.15.85-.34,1.27-.51a5,5,0,0,1,1.28-.37,3.8,3.8,0,0,0,.82-.21c.63-.22,1.24-.46,1.86-.69l.07,0L50,59.91a.81.81,0,0,1,.18-.1,7.75,7.75,0,0,0,2.28-1.63c.37-.38.7-.78,1-1.17a3.5,3.5,0,0,0,.72-1.44c.16-.69.32-1.38.47-2.08a2.85,2.85,0,0,0,0-1.09,5.41,5.41,0,0,1,0-1.45,2.86,2.86,0,0,0-.33-1.56l-.58-1.1a.17.17,0,0,0-.22-.08l-.95.26c-.27.08-.54.15-.8.25a4.23,4.23,0,0,1-1.12.25A5.21,5.21,0,0,0,49,49.4a23.57,23.57,0,0,0-2.22,1,1.43,1.43,0,0,0-.44.32,2.28,2.28,0,0,1-.87.61,6,6,0,0,0-1.9,1.31c-.65.64-1.27,1.32-1.9,2a2.32,2.32,0,0,0-.52,1c-.09.25-.21.5-.31.76a2.85,2.85,0,0,0-.14.5,7.44,7.44,0,0,1-.58,1.92A7.64,7.64,0,0,0,39.55,62a.37.37,0,0,1-.14.32,3.55,3.55,0,0,1-1.41.75A5.4,5.4,0,0,1,36.51,63.35Zm17.08-15c.15.25.27.5.42.73a2.48,2.48,0,0,1,.49,1.48c0,.46,0,.92,0,1.39a6.89,6.89,0,0,1,0,1.11c-.1.7-.26,1.38-.41,2.07,0,.17-.13.34-.16.51A3.34,3.34,0,0,1,53,57.28a12.21,12.21,0,0,1-.84.92c-.52.44-1.1.83-1.66,1.23a3.91,3.91,0,0,1-.75.34,4.85,4.85,0,0,0-.63.49,6.35,6.35,0,0,1-1.42.73c-.54.2-1.09.37-1.65.55-.2.06-.43.05-.62.12-.52.19-1,.4-1.55.62a5.68,5.68,0,0,1-1.7.51,12.31,12.31,0,0,1-1.92,0,1.42,1.42,0,0,1-.33-.11l-.21-.07c0,.22-.2.3-.38.38l-.59.23c-.43.17-.85.35-1.29.51a1,1,0,0,1-.38.07.47.47,0,0,1-.26-.08c-.06,0-.08-.12-.11-.18a.7.7,0,0,1,.2-.08h.25a1.33,1.33,0,0,0,.34,0c.36-.11.72-.21,1.06-.35a2.81,2.81,0,0,0,1-.66.3.3,0,0,0,.1-.26,8.31,8.31,0,0,1,.7-3.53,5.51,5.51,0,0,0,.33-1,6.94,6.94,0,0,1,.42-1.46,1.7,1.7,0,0,0,.16-.48,1.62,1.62,0,0,1,.4-.78c.5-.52,1-1,1.49-1.57a10.32,10.32,0,0,1,2.67-2,1.93,1.93,0,0,0,.52-.36,2.53,2.53,0,0,1,1-.64l1.52-.67a6.12,6.12,0,0,1,2-.53,3.78,3.78,0,0,0,.74-.17Z"/><path class="cls-2" d="M54.12,49.74a2.34,2.34,0,0,0-.27.15,4.32,4.32,0,0,1-1.22.65c-.14.05-.28.08-.43.12l0,0,.26-.37c.32-.43.65-.86,1-1.29a2,2,0,0,0,.21-.38s0-.08,0-.13a8.28,8.28,0,0,1-1.36,1.8c0-.12,0-.23,0-.35s0-.41,0-.62,0-.24,0-.36h-.06a2.89,2.89,0,0,0,0,.29c0,.31,0,.62,0,.92a1,1,0,0,1-.19.65c-.28.4-.55.81-.84,1.22-.13.19-.29.38-.43.56l-.16.16a1.62,1.62,0,0,1,0-.18c0-.61,0-1.21,0-1.82a1.6,1.6,0,0,1,.38-1.11.61.61,0,0,0,.16-.44.25.25,0,0,0-.09.07c-.12.17-.24.33-.35.5a.64.64,0,0,0-.12.25,5.88,5.88,0,0,0-.12,1.87,2.74,2.74,0,0,1,0,.5.37.37,0,0,0,0,.11.75.75,0,0,1-.13.66c-.35.45-.72.9-1.08,1.35l-.12.1c0-.05-.06-.08-.07-.12a.54.54,0,0,1,0-.25,2.27,2.27,0,0,0-.18-1.12,2,2,0,0,1,.12-1.55,2.63,2.63,0,0,0,.31-1c0-.12.06-.24.08-.36a2.36,2.36,0,0,0,0-.28l-.06,0a1.66,1.66,0,0,0-.13.27c0,.18-.06.37-.1.55a3,3,0,0,1-.22.72,2.1,2.1,0,0,0-.18,1.73,5.38,5.38,0,0,1,.18,1.32.82.82,0,0,1-.23.65c-.4.43-.8.85-1.21,1.27l0,0a.26.26,0,0,1,0-.12,2.19,2.19,0,0,0-.06-1q-.2-1.23-.36-2.46a2.44,2.44,0,0,1,.09-1,1.28,1.28,0,0,1,.42-.62,1,1,0,0,0,.31-.41,1.83,1.83,0,0,1,.18-.3l.13-.2,0,0a1,1,0,0,0-.17.12.48.48,0,0,0-.12.17,1.42,1.42,0,0,1-.43.6,1.65,1.65,0,0,0-.54,1.26,8.51,8.51,0,0,0,.19,1.74c.09.51.18,1,.28,1.53a1.91,1.91,0,0,1-.13.94.57.57,0,0,1-.1.13l-1,.91-.34.31c0-.08,0-.13,0-.19-.11-.62-.21-1.24-.32-1.86A8.27,8.27,0,0,1,45,53.69a3.18,3.18,0,0,1,1-2.16c.12-.11.26-.21.4-.33a.64.64,0,0,0-.41.17,2.69,2.69,0,0,0-1,1.55c0,.16-.07.32-.11.47a3.84,3.84,0,0,0-.07,1.31,16.22,16.22,0,0,0,.45,2.37,3.91,3.91,0,0,1,0,.84.6.6,0,0,1-.23.44l-1.4,1.24-.05,0a.8.8,0,0,1,0-.15c0-.51-.08-1-.14-1.53a8.62,8.62,0,0,0-.15-1,8.81,8.81,0,0,1,0-1.92,2.82,2.82,0,0,1,.23-1.07c.05-.13.08-.27.13-.41s.09-.23.14-.35a.51.51,0,0,0,0-.13h-.05a2.38,2.38,0,0,0-.18.3c-.06.15-.09.31-.14.47s-.11.25-.17.38a.32.32,0,0,0,0,.09c-.05.56-.12,1.12-.12,1.68a12.46,12.46,0,0,0,.14,1.37c.08.67.16,1.34.23,2a1.38,1.38,0,0,1,0,.29.49.49,0,0,1-.29.42,3.32,3.32,0,0,0-.66.51c-.15.14-.33.28-.49.41l0,0a.5.5,0,0,1,0-.17A2.71,2.71,0,0,0,42.1,60c0-.4.06-.8.08-1.2a3.55,3.55,0,0,0-.06-.55c0-.24,0-.48,0-.72,0-.59,0-1.18.06-1.77a2.41,2.41,0,0,1,.4-1.14s0,0,0,0l0,0a1.3,1.3,0,0,0-.15.18,3.41,3.41,0,0,0-.4,1.7A14.27,14.27,0,0,0,42,58.61a3.24,3.24,0,0,1-.05.76q0,.33,0,.66a2.39,2.39,0,0,1-.1.84c-.14.42-.54.61-.89.85l-.23.12,0,0c.06-.13.12-.25.17-.38a.47.47,0,0,0,.06-.19c0-.85.05-1.69.09-2.54a4.94,4.94,0,0,1,.12-.77,2.29,2.29,0,0,1,.12-.37,1.39,1.39,0,0,0,.06-.19l0,0c-.05.11-.11.21-.15.32a4.82,4.82,0,0,0-.22,1.25A9.58,9.58,0,0,0,40.82,61a1.12,1.12,0,0,1-.32.83,1,1,0,0,1-.6.44.31.31,0,0,0,.31.06,1.55,1.55,0,0,0,.22-.12,1.13,1.13,0,0,1,.88-.16,2.13,2.13,0,0,0,.94,0,5.7,5.7,0,0,1,1.17,0A4,4,0,0,0,45,61.65l-.65.14a2.52,2.52,0,0,1-1,.09s0,0-.07,0a1.75,1.75,0,0,1-.72,0,1.14,1.14,0,0,0-.45,0,1.6,1.6,0,0,1-.49,0c-.21,0-.43,0-.67-.08.1-.08.17-.15.26-.21.31-.24.64-.46,1-.7a1.12,1.12,0,0,1,1-.19c.44.12.9.19,1.35.27a4.18,4.18,0,0,0,1.32,0l1.67-.28a3.5,3.5,0,0,0,.46-.14v0a.6.6,0,0,0-.19,0,9,9,0,0,1-1.55.29l-.37.08a2.65,2.65,0,0,1-1,0l-1.8-.32-.37,0,.32-.27c.19-.16.39-.3.58-.45a1.14,1.14,0,0,1,.88-.23c.26,0,.53.07.79.11a4.41,4.41,0,0,0,1.26.06,8.94,8.94,0,0,1,1,0,5.87,5.87,0,0,0,2.56-.59,4.87,4.87,0,0,0,1.18-.73s.07-.1.11-.15l0,0,0,0a5.15,5.15,0,0,1-1.85,1,6.61,6.61,0,0,1-2.13.36c-.45,0-.9.06-1.35.05a7.46,7.46,0,0,1-1.05-.1,2.77,2.77,0,0,0-1,0,1.14,1.14,0,0,1,.15-.19c.31-.28.62-.54.91-.82a1.33,1.33,0,0,1,1-.39,4.07,4.07,0,0,0,.6-.06,1.38,1.38,0,0,1,.67,0,3.75,3.75,0,0,0,1.94,0c.41-.09.81-.21,1.22-.3a4,4,0,0,1,.48-.07,3.09,3.09,0,0,0,1.49-.54l.65-.46a.81.81,0,0,0,.09-.1l0,0-.22.15a4.48,4.48,0,0,1-1.34.69c-.28.07-.58.1-.86.16l-1.38.33a4.82,4.82,0,0,1-1.65.13.87.87,0,0,1-.22,0,1.81,1.81,0,0,0-1,0c-.21,0-.42.06-.63.09l0,0c.06-.07.09-.15.17-.19a3.66,3.66,0,0,0,.75-.66l.91-.87a.66.66,0,0,1,.62-.17l.35.08h.59a5,5,0,0,0,2-.22,11.39,11.39,0,0,0,2.15-.83,2.87,2.87,0,0,0,.81-.75,2.21,2.21,0,0,0-.24.14,2.85,2.85,0,0,0-.33.25,2.68,2.68,0,0,1-.68.39c-.42.17-.83.37-1.26.51a7.3,7.3,0,0,1-2.87.36c-.25,0-.5,0-.78-.06a1.89,1.89,0,0,1,.2-.27c.27-.31.56-.61.82-.93a1.7,1.7,0,0,1,1.09-.54,4.48,4.48,0,0,1,.64-.05,5,5,0,0,0,2.23-.61c.4-.2.78-.42,1.17-.64a.58.58,0,0,0,.3-.3L53,53.5a5.65,5.65,0,0,1-1.29.46,4.6,4.6,0,0,1-.84.13c-.44,0-.88.11-1.33.17a.41.41,0,0,1,0-.08l.25-.32.82-1a.64.64,0,0,1,.15-.13,3.35,3.35,0,0,1,.53-.28,8.42,8.42,0,0,1,.89-.29,4.12,4.12,0,0,0,.91-.33c.26-.14.55-.24.81-.37a2.69,2.69,0,0,0,.27-.2l0-.05-.64.32a5.27,5.27,0,0,1-1.75.65,5.6,5.6,0,0,0-.74.22,2,2,0,0,1,.17-.29,4.06,4.06,0,0,0,.58-.86,1.09,1.09,0,0,1,.68-.48c.32-.1.65-.2,1-.33a2,2,0,0,0,.78-.61Z"/><path class="cls-2" d="M35.41,45.31c-.08.14-.15.26-.23.38s-.06,0-.09,0a3.38,3.38,0,0,1-1-.28l-.77-.35a.87.87,0,0,0-.48-.07l-.38,0a3.53,3.53,0,0,1-1.71-.18c-.3-.1-.58-.22-.87-.34a3.57,3.57,0,0,0-.88-.24,2.61,2.61,0,0,1-.55-.14c-.43-.14-.85-.3-1.27-.45l-.06,0-.9-.6L26.1,43a5.32,5.32,0,0,1-1.57-1.09c-.25-.25-.48-.52-.71-.79a2.37,2.37,0,0,1-.5-1c-.12-.46-.24-.93-.35-1.4a1.86,1.86,0,0,1,0-.74,3.65,3.65,0,0,0,0-1A1.88,1.88,0,0,1,23.13,36c.12-.26.25-.5.38-.76a.12.12,0,0,1,.15,0l.65.16c.18.05.37.1.55.17a2.71,2.71,0,0,0,.75.16,3.41,3.41,0,0,1,1.14.28,15.91,15.91,0,0,1,1.52.67,1.11,1.11,0,0,1,.3.22,1.58,1.58,0,0,0,.6.4,4.13,4.13,0,0,1,1.31.88c.45.43.88.88,1.31,1.33a1.6,1.6,0,0,1,.37.64c.06.18.15.34.22.52a1.91,1.91,0,0,1,.1.34,5.16,5.16,0,0,0,.41,1.3,5.14,5.14,0,0,1,.44,2.21.28.28,0,0,0,.1.22,2.41,2.41,0,0,0,1,.49A3.29,3.29,0,0,0,35.41,45.31Zm-11.78-10a4.68,4.68,0,0,1-.28.5,1.73,1.73,0,0,0-.31,1c0,.31,0,.62,0,.94a3.76,3.76,0,0,0,0,.75c.07.48.19.94.3,1.41,0,.12.09.23.12.34a2.17,2.17,0,0,0,.63,1.09c.2.21.36.44.58.63s.76.55,1.15.82a2.91,2.91,0,0,0,.51.22,3.28,3.28,0,0,1,.43.33,4.38,4.38,0,0,0,1,.48c.37.14.75.25,1.13.36.14,0,.29,0,.42.08.36.13.72.26,1.06.41a4.17,4.17,0,0,0,1.16.33,8.16,8.16,0,0,0,1.31,0,1,1,0,0,0,.23-.08l.14,0c0,.15.14.21.26.26l.4.15.88.34a.8.8,0,0,0,.27,0,.31.31,0,0,0,.17,0s0-.09.08-.13l-.14,0H35a.86.86,0,0,1-.23,0c-.25-.08-.49-.14-.73-.23a2,2,0,0,1-.7-.45.22.22,0,0,1-.07-.17,5.73,5.73,0,0,0-.52-2.4,4,4,0,0,1-.24-.69,4.27,4.27,0,0,0-.3-1,1.42,1.42,0,0,1-.11-.33,1.08,1.08,0,0,0-.29-.52c-.34-.36-.68-.71-1-1.06a6.74,6.74,0,0,0-1.83-1.3,1.29,1.29,0,0,1-.36-.25,1.7,1.7,0,0,0-.65-.42l-1-.44a4,4,0,0,0-1.34-.35,3.06,3.06,0,0,1-.51-.1Z"/><path class="cls-2" d="M23.29,36.21l.19.1a2.73,2.73,0,0,0,.83.43l.29.08,0,0c-.06-.08-.11-.17-.18-.25l-.67-.87a1.3,1.3,0,0,1-.14-.26.08.08,0,0,1,0-.08,6.26,6.26,0,0,0,.94,1.21,1,1,0,0,0,0-.24c0-.14,0-.28,0-.42s0-.16,0-.24h0a1.08,1.08,0,0,1,0,.19c0,.21,0,.42,0,.63a.72.72,0,0,0,.14.44l.58.82.3.38.11.1a.57.57,0,0,0,0-.12c0-.41,0-.82,0-1.23a1.14,1.14,0,0,0-.27-.76.43.43,0,0,1-.12-.3l.07.05.24.34a.38.38,0,0,1,.08.17,4.18,4.18,0,0,1,.11,1.27,2,2,0,0,0,0,.34s0,.05,0,.07a.49.49,0,0,0,.1.45l.74.9s0,0,.08.07a.35.35,0,0,0,.05-.08.47.47,0,0,0,0-.17,1.53,1.53,0,0,1,.1-.76,1.28,1.28,0,0,0-.1-1.06,1.64,1.64,0,0,1-.21-.68c0-.08-.05-.16-.06-.24s0-.13,0-.19h0a1,1,0,0,1,.09.18c0,.12,0,.25.07.37a2.16,2.16,0,0,0,.16.49,1.39,1.39,0,0,1,.14,1.17,3.94,3.94,0,0,0-.1.9.54.54,0,0,0,.16.44c.28.29.56.57.83.86l0,0s0-.06,0-.08a1.43,1.43,0,0,1,0-.65c.07-.56.15-1.11.21-1.67a1.56,1.56,0,0,0-.07-.71.84.84,0,0,0-.29-.41.72.72,0,0,1-.22-.28,1.32,1.32,0,0,0-.12-.2l-.09-.14,0,0,.12.08a.25.25,0,0,1,.08.12,1.06,1.06,0,0,0,.3.4,1.09,1.09,0,0,1,.38.85,5.82,5.82,0,0,1-.1,1.18l-.18,1a1.37,1.37,0,0,0,.1.63l.07.09.67.62.24.2a.53.53,0,0,1,0-.13c.06-.42.12-.85.19-1.27a5.69,5.69,0,0,0,.11-1.54,2.24,2.24,0,0,0-.72-1.46l-.28-.22a.45.45,0,0,1,.28.11,1.84,1.84,0,0,1,.7,1c0,.1.05.21.08.32a2.6,2.6,0,0,1,.06.88,11.18,11.18,0,0,1-.27,1.62,2.16,2.16,0,0,0,0,.57.43.43,0,0,0,.16.3l1,.83h0a.44.44,0,0,0,0-.1c0-.34,0-.69.08-1s.05-.46.09-.68a6.37,6.37,0,0,0,0-1.31,1.81,1.81,0,0,0-.17-.72c0-.09-.06-.19-.09-.28l-.1-.24s0-.05,0-.08h0a1.32,1.32,0,0,1,.12.2c0,.1.06.21.1.32l.12.26,0,.06c0,.38.09.76.1,1.14s-.05.62-.08.93-.09.91-.14,1.36a1.34,1.34,0,0,0,0,.2.34.34,0,0,0,.2.28,2.29,2.29,0,0,1,.46.34l.34.28,0,0s0-.08,0-.11a1.76,1.76,0,0,1,0-.51c0-.28-.06-.55-.07-.82a2.31,2.31,0,0,1,0-.37,4,4,0,0,0,0-.49c0-.4,0-.8-.06-1.21a1.55,1.55,0,0,0-.29-.76s0,0,0,0l0,0,.11.12a2.39,2.39,0,0,1,.3,1.16,10.31,10.31,0,0,1,0,1.47,2.35,2.35,0,0,0,.05.52c0,.15,0,.3,0,.44a1.39,1.39,0,0,0,.08.57c.1.29.37.41.61.57l.15.08h0l-.12-.26a.28.28,0,0,1,0-.13c0-.57-.05-1.15-.09-1.72a3.26,3.26,0,0,0-.09-.53c0-.08-.06-.16-.09-.25a.56.56,0,0,1,0-.12h0a1.39,1.39,0,0,1,.11.21,3.45,3.45,0,0,1,.16.85,6.59,6.59,0,0,1,.09,1.4.75.75,0,0,0,.22.56.71.71,0,0,0,.42.3.21.21,0,0,1-.21,0l-.16-.08a.76.76,0,0,0-.59-.1,1.53,1.53,0,0,1-.64,0,5.3,5.3,0,0,0-.8,0,2.74,2.74,0,0,1-1.1-.22l.45.09a1.72,1.72,0,0,0,.64,0h0a1.35,1.35,0,0,0,.49,0,.81.81,0,0,1,.31,0,1.76,1.76,0,0,0,.33,0l.46-.06a2,2,0,0,0-.18-.15l-.66-.46a.76.76,0,0,0-.69-.12,8.62,8.62,0,0,1-.91.19,2.72,2.72,0,0,1-.9,0l-1.13-.17a3,3,0,0,1-.32-.09v0h.13a6.41,6.41,0,0,0,1,.18l.26.05a1.88,1.88,0,0,0,.71,0l1.22-.24.25,0-.22-.18-.4-.3a.78.78,0,0,0-.6-.15,4.51,4.51,0,0,0-.53.09,3.09,3.09,0,0,1-.86,0,5.56,5.56,0,0,0-.71,0,4.09,4.09,0,0,1-1.74-.38,2.87,2.87,0,0,1-.81-.49l-.08-.1h.06a3.5,3.5,0,0,0,1.27.66A4.4,4.4,0,0,0,28,42.9c.31,0,.61,0,.92,0a5.71,5.71,0,0,0,.71-.08,2,2,0,0,1,.65,0l-.1-.13c-.21-.18-.43-.35-.63-.54a.91.91,0,0,0-.66-.26,2.85,2.85,0,0,1-.41,0,1,1,0,0,0-.46,0,2.68,2.68,0,0,1-1.32,0l-.83-.2-.32,0a2.07,2.07,0,0,1-1-.35L24.07,41s0-.05-.06-.07v0l.15.1a2.94,2.94,0,0,0,.92.46c.19,0,.39.06.59.1s.62.15.94.21a3.25,3.25,0,0,0,1.12.08.66.66,0,0,0,.15,0,1.19,1.19,0,0,1,.7,0l.43.06,0,0c0-.05-.06-.11-.11-.13a2.52,2.52,0,0,1-.52-.44c-.2-.2-.42-.39-.63-.59a.49.49,0,0,0-.42-.11,2.1,2.1,0,0,1-.24.06h-.4a3.56,3.56,0,0,1-1.34-.13,7.41,7.41,0,0,1-1.47-.55,2,2,0,0,1-.56-.5l.17.09.22.17a2,2,0,0,0,.47.26c.29.11.57.24.86.34a5,5,0,0,0,2,.21l.52,0-.13-.18c-.19-.2-.39-.41-.57-.62a1.24,1.24,0,0,0-.75-.36,3.11,3.11,0,0,0-.43,0,3.31,3.31,0,0,1-1.53-.39c-.27-.13-.53-.28-.8-.43a.41.41,0,0,1-.21-.2l1,.55a4.35,4.35,0,0,0,.88.3,2.8,2.8,0,0,0,.57.08c.3,0,.6.07.91.1a.17.17,0,0,0,0-.05L26.29,39c-.19-.24-.38-.48-.58-.71a.45.45,0,0,0-.1-.09c-.12-.06-.23-.14-.36-.19a4.27,4.27,0,0,0-.61-.18,2.53,2.53,0,0,1-.62-.22l-.56-.25a1.18,1.18,0,0,1-.18-.13l0,0c.14.07.3.13.44.21a3.43,3.43,0,0,0,1.2.42,4,4,0,0,1,.5.15,1.32,1.32,0,0,0-.12-.2,2.68,2.68,0,0,1-.4-.57.68.68,0,0,0-.47-.32c-.22-.07-.44-.14-.65-.23a1.33,1.33,0,0,1-.55-.4Z"/><path class="cls-2" d="M96.2,89.85h0a1.34,1.34,0,0,0,.66.22,1.62,1.62,0,0,0,.85-.22h0s4.06-12.43,3.9-16.61-3.9-12.46-3.9-16.61,3.4-12.13,3.59-16.21c.2-4.27-2.57-12.75-3.82-17h0l-2.65-5.91L96.2,23.4h0s3.9,12.49,3.9,16.66-3.86,12.4-3.9,16.57,3.71,12.66,3.69,16.91C99.88,77.64,97.42,85.79,96.2,89.85Z"/><path class="cls-2" d="M99.81,63.35c.13.2.23.38.35.55s.09,0,.14,0a5.13,5.13,0,0,0,1.46-.43c.38-.16.75-.35,1.12-.53a1.32,1.32,0,0,1,.71-.11l.56,0a5.19,5.19,0,0,0,2.51-.3c.43-.15.85-.34,1.27-.51a5,5,0,0,1,1.28-.37,3.8,3.8,0,0,0,.82-.21c.63-.22,1.24-.46,1.86-.69l.07,0,1.31-.88a.81.81,0,0,1,.18-.1,7.75,7.75,0,0,0,2.28-1.63c.37-.38.7-.78,1-1.17a3.5,3.5,0,0,0,.72-1.44c.16-.69.32-1.38.47-2.08a2.85,2.85,0,0,0,0-1.09A5.41,5.41,0,0,1,118,51a2.86,2.86,0,0,0-.33-1.56l-.58-1.1a.17.17,0,0,0-.22-.08l-.95.26c-.27.08-.54.15-.8.25A4.23,4.23,0,0,1,114,49a5.21,5.21,0,0,0-1.66.43,23.57,23.57,0,0,0-2.22,1,1.43,1.43,0,0,0-.44.32,2.28,2.28,0,0,1-.87.61,6,6,0,0,0-1.9,1.31c-.65.64-1.27,1.32-1.9,2a2.32,2.32,0,0,0-.52,1c-.09.25-.21.5-.31.76a2.85,2.85,0,0,0-.14.5,7.44,7.44,0,0,1-.58,1.92,7.64,7.64,0,0,0-.59,3.26.37.37,0,0,1-.14.32,3.55,3.55,0,0,1-1.41.75A5.4,5.4,0,0,1,99.81,63.35Zm17.08-15c.15.25.27.5.42.73a2.48,2.48,0,0,1,.49,1.48c0,.46,0,.92,0,1.39a6.89,6.89,0,0,1,0,1.11c-.1.7-.27,1.38-.41,2.07,0,.17-.13.34-.16.51a3.34,3.34,0,0,1-.91,1.62,12.21,12.21,0,0,1-.84.92c-.52.44-1.1.83-1.66,1.23a3.91,3.91,0,0,1-.75.34,4.85,4.85,0,0,0-.63.49A6.35,6.35,0,0,1,111,61c-.54.2-1.09.37-1.65.55-.2.06-.43.05-.62.12-.52.19-1,.4-1.55.62a5.68,5.68,0,0,1-1.7.51,12.31,12.31,0,0,1-1.92,0,1.42,1.42,0,0,1-.33-.11l-.21-.07c0,.22-.2.3-.38.38l-.59.23c-.43.17-.85.35-1.29.51a1,1,0,0,1-.38.07.47.47,0,0,1-.26-.08c-.06,0-.08-.12-.11-.18a.7.7,0,0,1,.2-.08h.25a1.33,1.33,0,0,0,.34,0c.36-.11.72-.21,1.06-.35a2.81,2.81,0,0,0,1-.66.3.3,0,0,0,.1-.26,8.31,8.31,0,0,1,.7-3.53,5.51,5.51,0,0,0,.33-1,6.94,6.94,0,0,1,.42-1.46,1.7,1.7,0,0,0,.16-.48,1.62,1.62,0,0,1,.4-.78c.5-.52,1-1,1.49-1.57a10.32,10.32,0,0,1,2.67-2,1.93,1.93,0,0,0,.52-.36,2.53,2.53,0,0,1,1-.64l1.52-.67a6.12,6.12,0,0,1,2-.53,3.78,3.78,0,0,0,.74-.17Z"/><path class="cls-2" d="M117.42,49.74a2.34,2.34,0,0,0-.27.15,4.32,4.32,0,0,1-1.22.65c-.14.05-.28.08-.43.12l0,0,.26-.37c.32-.43.65-.86,1-1.29a2,2,0,0,0,.21-.38s0-.08,0-.13a8.28,8.28,0,0,1-1.36,1.8c0-.12,0-.23,0-.35s0-.41,0-.62,0-.24,0-.36h-.06a2.89,2.89,0,0,0,0,.29c0,.31,0,.62,0,.92a1,1,0,0,1-.19.65c-.28.4-.55.81-.84,1.22-.13.19-.29.38-.43.56l-.16.16a1.62,1.62,0,0,1,0-.18c0-.61,0-1.21,0-1.82a1.6,1.6,0,0,1,.38-1.11.61.61,0,0,0,.16-.44.25.25,0,0,0-.09.07c-.12.17-.24.33-.35.5a.64.64,0,0,0-.12.25,5.88,5.88,0,0,0-.12,1.87,2.74,2.74,0,0,1,0,.5.37.37,0,0,0,0,.11.75.75,0,0,1-.13.66c-.35.45-.72.9-1.08,1.35l-.12.1c0-.05-.06-.08-.07-.12a.54.54,0,0,1,0-.25A2.27,2.27,0,0,0,112,53.1a2,2,0,0,1,.12-1.55,2.63,2.63,0,0,0,.31-1c0-.12.06-.24.08-.36a2.36,2.36,0,0,0,0-.28l-.06,0a1.66,1.66,0,0,0-.13.27c0,.18-.06.37-.1.55a3,3,0,0,1-.22.72,2.1,2.1,0,0,0-.18,1.73,5.38,5.38,0,0,1,.18,1.32.82.82,0,0,1-.23.65c-.4.43-.8.85-1.21,1.27l0,0a.26.26,0,0,1,0-.12,2.19,2.19,0,0,0-.06-1q-.19-1.23-.36-2.46a2.44,2.44,0,0,1,.09-1,1.28,1.28,0,0,1,.42-.62,1,1,0,0,0,.31-.41,1.83,1.83,0,0,1,.18-.3l.13-.2,0,0a1,1,0,0,0-.17.12.48.48,0,0,0-.12.17,1.42,1.42,0,0,1-.43.6,1.65,1.65,0,0,0-.54,1.26,8.51,8.51,0,0,0,.19,1.74c.09.51.18,1,.28,1.53a1.91,1.91,0,0,1-.13.94.57.57,0,0,1-.1.13l-1,.91-.34.31c0-.08,0-.13,0-.19-.11-.62-.21-1.24-.32-1.86a8.27,8.27,0,0,1-.19-2.27,3.18,3.18,0,0,1,1-2.16c.12-.11.26-.21.4-.33a.64.64,0,0,0-.41.17,2.69,2.69,0,0,0-1,1.55c0,.16-.07.32-.11.47a3.84,3.84,0,0,0-.07,1.31,16.22,16.22,0,0,0,.45,2.37,3.91,3.91,0,0,1,0,.84.64.64,0,0,1-.23.44L107,59.59l-.05,0a.8.8,0,0,1,0-.15c0-.51-.08-1-.14-1.53a8.62,8.62,0,0,0-.15-1,8.81,8.81,0,0,1,0-1.92,2.82,2.82,0,0,1,.23-1.07c.05-.13.08-.27.13-.41s.09-.23.14-.35a.51.51,0,0,0,0-.13h0a2.38,2.38,0,0,0-.18.3c-.06.15-.09.31-.14.47s-.11.25-.17.38a.32.32,0,0,0,0,.09c0,.56-.12,1.12-.12,1.68a12.46,12.46,0,0,0,.14,1.37c.08.67.16,1.34.23,2a1.38,1.38,0,0,1,0,.29.49.49,0,0,1-.29.42,3.32,3.32,0,0,0-.66.51c-.15.14-.33.28-.49.41l0,0a.5.5,0,0,1,0-.17,2.71,2.71,0,0,0,.05-.75c0-.4.06-.8.08-1.2a3.55,3.55,0,0,0-.06-.55c0-.24,0-.48,0-.72,0-.59,0-1.18.06-1.77a2.41,2.41,0,0,1,.4-1.14s0,0,0,0l0,0a1.3,1.3,0,0,0-.15.18,3.41,3.41,0,0,0-.4,1.7,14.27,14.27,0,0,0,0,2.17,3.24,3.24,0,0,1,0,.76q0,.33,0,.66a2.39,2.39,0,0,1-.1.84c-.14.42-.54.61-.89.85l-.23.12,0,0c.06-.13.12-.25.17-.38a.47.47,0,0,0,.06-.19c0-.85.05-1.69.09-2.54a4,4,0,0,1,.12-.77,2.29,2.29,0,0,1,.12-.37,1.39,1.39,0,0,0,.06-.19l0,0c0,.11-.11.21-.15.32a4.82,4.82,0,0,0-.22,1.25,9.58,9.58,0,0,0-.09,2.07,1.12,1.12,0,0,1-.32.83,1,1,0,0,1-.6.44.31.31,0,0,0,.31.06,1.55,1.55,0,0,0,.22-.12,1.13,1.13,0,0,1,.88-.16,2.13,2.13,0,0,0,.94,0,5.7,5.7,0,0,1,1.17,0,4,4,0,0,0,1.61-.35l-.65.14a2.52,2.52,0,0,1-1,.09s0,0-.07,0a1.75,1.75,0,0,1-.72,0,1.14,1.14,0,0,0-.45,0,1.6,1.6,0,0,1-.49,0c-.21,0-.43,0-.67-.08.1-.08.17-.15.26-.21.31-.24.64-.46,1-.7a1.12,1.12,0,0,1,1-.19c.44.12.9.19,1.35.27a4.18,4.18,0,0,0,1.32,0l1.67-.28a3.5,3.5,0,0,0,.46-.14v0a.6.6,0,0,0-.19,0,9,9,0,0,1-1.55.29l-.37.08a2.65,2.65,0,0,1-1,0l-1.8-.32-.37,0,.32-.27c.19-.16.39-.3.58-.45a1.14,1.14,0,0,1,.88-.23c.26,0,.53.07.79.11a4.41,4.41,0,0,0,1.26.06,8.94,8.94,0,0,1,1,0,5.87,5.87,0,0,0,2.56-.59,4.87,4.87,0,0,0,1.18-.73s.07-.1.11-.15l0,0,0,0a5.15,5.15,0,0,1-1.85,1,6.61,6.61,0,0,1-2.13.36c-.45,0-.9.06-1.35.05a7.46,7.46,0,0,1-1-.1,2.77,2.77,0,0,0-1,0,1.14,1.14,0,0,1,.15-.19c.31-.28.62-.54.91-.82a1.33,1.33,0,0,1,1-.39,4.07,4.07,0,0,0,.6-.06,1.38,1.38,0,0,1,.67,0,3.75,3.75,0,0,0,1.94,0c.41-.09.81-.21,1.22-.3a4,4,0,0,1,.48-.07,3.09,3.09,0,0,0,1.49-.54l.65-.46a.81.81,0,0,0,.09-.1l0,0-.22.15a4.48,4.48,0,0,1-1.34.69c-.28.07-.58.1-.86.16l-1.38.33a4.82,4.82,0,0,1-1.65.13.87.87,0,0,1-.22,0,1.81,1.81,0,0,0-1,0c-.21,0-.42.06-.63.09l0,0c.06-.07.09-.15.17-.19a3.66,3.66,0,0,0,.75-.66l.91-.87a.66.66,0,0,1,.62-.17l.35.08h.59a5,5,0,0,0,2-.22,11.39,11.39,0,0,0,2.15-.83,2.87,2.87,0,0,0,.81-.75,2.21,2.21,0,0,0-.24.14,2.85,2.85,0,0,0-.33.25,2.68,2.68,0,0,1-.68.39c-.42.17-.83.37-1.26.51a7.3,7.3,0,0,1-2.87.36c-.25,0-.5,0-.78-.06a1.89,1.89,0,0,1,.2-.27c.27-.31.56-.61.82-.93a1.7,1.7,0,0,1,1.09-.54,4.48,4.48,0,0,1,.64-.05,5,5,0,0,0,2.23-.61c.4-.2.78-.42,1.17-.64a.58.58,0,0,0,.3-.3l-1.44.82A5.65,5.65,0,0,1,115,54a4.6,4.6,0,0,1-.84.13c-.44,0-.88.11-1.33.17a.41.41,0,0,1,0-.08l.25-.32.82-1a.64.64,0,0,1,.15-.13,3.35,3.35,0,0,1,.53-.28,8.42,8.42,0,0,1,.89-.29,4.12,4.12,0,0,0,.91-.33c.26-.14.55-.24.81-.37a2.69,2.69,0,0,0,.27-.2l0-.05-.64.32a5.27,5.27,0,0,1-1.75.65,5.6,5.6,0,0,0-.74.22,2,2,0,0,1,.17-.29,4.06,4.06,0,0,0,.58-.86,1.09,1.09,0,0,1,.68-.48c.32-.1.65-.2,1-.33a2,2,0,0,0,.78-.61Z"/><path class="cls-2" d="M98.71,45.31c-.08.14-.15.26-.23.38s-.06,0-.09,0a3.38,3.38,0,0,1-1-.28l-.77-.35a.87.87,0,0,0-.48-.07l-.38,0a3.53,3.53,0,0,1-1.71-.18c-.3-.1-.58-.22-.87-.34a3.57,3.57,0,0,0-.88-.24,2.61,2.61,0,0,1-.55-.14c-.43-.14-.85-.3-1.27-.45l-.06,0-.9-.6L89.4,43a5.32,5.32,0,0,1-1.57-1.09c-.25-.25-.48-.52-.71-.79a2.37,2.37,0,0,1-.5-1c-.12-.46-.24-.93-.35-1.4a1.86,1.86,0,0,1,0-.74,3.65,3.65,0,0,0,0-1A1.88,1.88,0,0,1,86.43,36c.12-.26.25-.5.38-.76a.12.12,0,0,1,.15,0l.65.16c.18.05.37.1.55.17a2.71,2.71,0,0,0,.75.16,3.41,3.41,0,0,1,1.14.28,15.91,15.91,0,0,1,1.52.67,1.11,1.11,0,0,1,.3.22,1.58,1.58,0,0,0,.6.4,4.13,4.13,0,0,1,1.31.88c.45.43.88.88,1.31,1.33a1.6,1.6,0,0,1,.37.64c.06.18.15.34.22.52a1.91,1.91,0,0,1,.1.34,5.16,5.16,0,0,0,.41,1.3,5.14,5.14,0,0,1,.44,2.21.28.28,0,0,0,.1.22,2.41,2.41,0,0,0,1,.49A3.29,3.29,0,0,0,98.71,45.31Zm-11.78-10a4.68,4.68,0,0,1-.28.5,1.73,1.73,0,0,0-.31,1c0,.31,0,.62,0,.94a3.76,3.76,0,0,0,0,.75c.07.48.19.94.3,1.41,0,.12.09.23.12.34a2.17,2.17,0,0,0,.63,1.09c.2.21.36.44.58.63s.76.55,1.15.82a2.91,2.91,0,0,0,.51.22,3.28,3.28,0,0,1,.43.33,4.38,4.38,0,0,0,1,.48c.37.14.75.25,1.13.36.14,0,.29,0,.42.08.36.13.72.26,1.06.41a4.17,4.17,0,0,0,1.16.33,8.16,8.16,0,0,0,1.31,0,1,1,0,0,0,.23-.08l.14,0c0,.15.14.21.26.26l.4.15.88.34a.8.8,0,0,0,.27,0,.31.31,0,0,0,.17,0s0-.09.08-.13l-.14,0h-.17a.86.86,0,0,1-.23,0c-.25-.08-.49-.14-.73-.23a2,2,0,0,1-.7-.45.22.22,0,0,1-.07-.17A5.73,5.73,0,0,0,96,42.1a4,4,0,0,1-.24-.69,4.27,4.27,0,0,0-.3-1,1.42,1.42,0,0,1-.11-.33,1.08,1.08,0,0,0-.29-.52c-.34-.36-.68-.71-1-1.06a6.74,6.74,0,0,0-1.83-1.3,1.29,1.29,0,0,1-.36-.25,1.7,1.7,0,0,0-.65-.42l-1-.44a4.08,4.08,0,0,0-1.34-.35,3.06,3.06,0,0,1-.51-.1Z"/><path class="cls-2" d="M86.59,36.21l.19.1a2.73,2.73,0,0,0,.83.43l.29.08,0,0c-.06-.08-.11-.17-.18-.25l-.67-.87a1.3,1.3,0,0,1-.14-.26.08.08,0,0,1,0-.08,6.26,6.26,0,0,0,.94,1.21,1,1,0,0,0,0-.24c0-.14,0-.28,0-.42s0-.16,0-.24h0a1.08,1.08,0,0,1,0,.19c0,.21,0,.42,0,.63a.72.72,0,0,0,.14.44l.58.82.3.38.11.1a.57.57,0,0,0,0-.12c0-.41,0-.82,0-1.23a1.14,1.14,0,0,0-.27-.76.43.43,0,0,1-.12-.3l.07.05.24.34a.38.38,0,0,1,.08.17,4.18,4.18,0,0,1,.11,1.27,2,2,0,0,0,0,.34s0,.05,0,.07a.49.49,0,0,0,.1.45l.74.9s0,0,.08.07a.35.35,0,0,0,0-.08.47.47,0,0,0,0-.17,1.53,1.53,0,0,1,.1-.76,1.28,1.28,0,0,0-.1-1.06,1.64,1.64,0,0,1-.21-.68c0-.08,0-.16-.06-.24s0-.13,0-.19h0a1,1,0,0,1,.09.18c0,.12,0,.25.07.37a2.16,2.16,0,0,0,.16.49,1.39,1.39,0,0,1,.14,1.17,3.94,3.94,0,0,0-.1.9.54.54,0,0,0,.16.44c.28.29.56.57.83.86l0,0s0-.06,0-.08a1.43,1.43,0,0,1,0-.65c.07-.56.15-1.11.21-1.67a1.56,1.56,0,0,0-.07-.71.84.84,0,0,0-.29-.41A.72.72,0,0,1,91,36.9a1.32,1.32,0,0,0-.12-.2l-.09-.14,0,0,.12.08a.25.25,0,0,1,.08.12,1.06,1.06,0,0,0,.3.4,1.09,1.09,0,0,1,.38.85,5.82,5.82,0,0,1-.1,1.18l-.18,1a1.37,1.37,0,0,0,.1.63l.07.09.67.62.24.2a.53.53,0,0,1,0-.13c.06-.42.12-.85.19-1.27a5.69,5.69,0,0,0,.11-1.54,2.24,2.24,0,0,0-.72-1.46l-.28-.22a.45.45,0,0,1,.28.11,1.84,1.84,0,0,1,.7,1c0,.1,0,.21.08.32a2.6,2.6,0,0,1,.06.88,11.18,11.18,0,0,1-.27,1.62,2.16,2.16,0,0,0,0,.57.43.43,0,0,0,.16.3l1,.83h0a.44.44,0,0,0,0-.1c0-.34,0-.69.08-1s0-.46.09-.68a6.37,6.37,0,0,0,0-1.31,1.81,1.81,0,0,0-.17-.72c0-.09-.06-.19-.09-.28l-.1-.24s0-.05,0-.08h0a1.32,1.32,0,0,1,.12.2c0,.1.06.21.1.32l.12.26a.33.33,0,0,1,0,.06c0,.38.09.76.1,1.14s-.05.62-.08.93-.09.91-.14,1.36a1.34,1.34,0,0,0,0,.2.34.34,0,0,0,.2.28,2.29,2.29,0,0,1,.46.34l.34.28,0,0s0-.08,0-.11a1.76,1.76,0,0,1,0-.51c0-.28-.06-.55-.07-.82a2.31,2.31,0,0,1,0-.37,4,4,0,0,0,0-.49c0-.4,0-.8-.06-1.21a1.55,1.55,0,0,0-.29-.76s0,0,0,0l0,0,.11.12a2.39,2.39,0,0,1,.3,1.16,10.31,10.31,0,0,1,0,1.47,2.35,2.35,0,0,0,0,.52c0,.15,0,.3,0,.44a1.39,1.39,0,0,0,.08.57c.1.29.37.41.61.57l.15.08h0l-.12-.26a.28.28,0,0,1,0-.13c0-.57-.05-1.15-.09-1.72a3.26,3.26,0,0,0-.09-.53c0-.08-.06-.16-.09-.25a.56.56,0,0,1,0-.12h0a1.39,1.39,0,0,1,.11.21,3.45,3.45,0,0,1,.16.85,6.59,6.59,0,0,1,.09,1.4.75.75,0,0,0,.22.56.71.71,0,0,0,.42.3.21.21,0,0,1-.21,0L96,44.57a.76.76,0,0,0-.59-.1,1.53,1.53,0,0,1-.64,0,5.3,5.3,0,0,0-.8,0,2.74,2.74,0,0,1-1.1-.22l.45.09a1.72,1.72,0,0,0,.64,0H94a1.35,1.35,0,0,0,.49,0,.81.81,0,0,1,.31,0,1.76,1.76,0,0,0,.33,0l.46-.06a2,2,0,0,0-.18-.15l-.66-.46a.76.76,0,0,0-.69-.12,8.62,8.62,0,0,1-.91.19,2.72,2.72,0,0,1-.9,0l-1.13-.17a3,3,0,0,1-.32-.09v0H91a6.41,6.41,0,0,0,1,.18l.26.05a1.88,1.88,0,0,0,.71,0l1.22-.24.25,0-.22-.18-.4-.3a.78.78,0,0,0-.6-.15,4.51,4.51,0,0,0-.53.09,3.09,3.09,0,0,1-.86,0,5.56,5.56,0,0,0-.71,0,4.09,4.09,0,0,1-1.74-.38,2.87,2.87,0,0,1-.81-.49l-.08-.1h.06a3.5,3.5,0,0,0,1.27.66,4.4,4.4,0,0,0,1.45.23c.31,0,.61,0,.92,0a5.71,5.71,0,0,0,.71-.08,2,2,0,0,1,.65,0l-.1-.13c-.21-.18-.43-.35-.63-.54a.91.91,0,0,0-.66-.26,2.71,2.71,0,0,1-.41,0,1,1,0,0,0-.46,0,2.68,2.68,0,0,1-1.32,0l-.83-.2-.32,0a2.07,2.07,0,0,1-1-.35L87.37,41s0-.05-.06-.07v0l.15.1a2.94,2.94,0,0,0,.92.46c.19,0,.39.06.59.1s.62.15.94.21a3.25,3.25,0,0,0,1.12.08.66.66,0,0,0,.15,0,1.19,1.19,0,0,1,.7,0l.43.06,0,0c0-.05-.06-.11-.11-.13a2.52,2.52,0,0,1-.52-.44l-.63-.59a.49.49,0,0,0-.42-.11,2.1,2.1,0,0,1-.24.06H90a3.56,3.56,0,0,1-1.34-.13,7.41,7.41,0,0,1-1.47-.55,2,2,0,0,1-.56-.5l.17.09.22.17a2,2,0,0,0,.47.26c.29.11.57.24.86.34a5,5,0,0,0,2,.21l.52,0-.13-.18c-.19-.2-.39-.41-.57-.62a1.24,1.24,0,0,0-.75-.36,3.11,3.11,0,0,0-.43,0,3.31,3.31,0,0,1-1.53-.39c-.27-.13-.53-.28-.8-.43a.41.41,0,0,1-.21-.2l1,.55a4.35,4.35,0,0,0,.88.3,2.8,2.8,0,0,0,.57.08c.3,0,.6.07.91.1a.17.17,0,0,0,0-.05L89.59,39c-.19-.24-.38-.48-.58-.71a.45.45,0,0,0-.1-.09c-.12-.06-.23-.14-.36-.19a4.27,4.27,0,0,0-.61-.18,2.53,2.53,0,0,1-.62-.22l-.56-.25a1.18,1.18,0,0,1-.18-.13l0,0c.14.07.3.13.44.21a3.43,3.43,0,0,0,1.2.42,4,4,0,0,1,.5.15,1.32,1.32,0,0,0-.12-.2,2.68,2.68,0,0,1-.4-.57.68.68,0,0,0-.47-.32c-.22-.07-.44-.14-.65-.23a1.33,1.33,0,0,1-.55-.4Z"/><line class="cls-2" x1="24.89" y1="100.68" x2="111.39" y2="100.68"/><line class="cls-3" x1="30.86" y1="100.68" x2="105.42" y2="100.68"/><polygon class="cls-2" points="33.67 104.38 32.09 100.68 33.67 96.98 24.89 100.68 33.67 104.38"/><polygon class="cls-2" points="102.61 104.38 104.18 100.68 102.61 96.98 111.39 100.68 102.61 104.38"/></g></g></svg>