<svg xmlns="http://www.w3.org/2000/svg" viewBox="0 0 133.44 133.44"><defs><style>.cls-1{fill:#0f1014;}.cls-2{fill:#ffe9a0;}</style></defs><g id="Layer_2" data-name="Layer 2"><g id="Layer_1-2" data-name="Layer 1"><g id="Layer_1-2-2" data-name="Layer 1-2"><g id="Layer_1-2-2-2" data-name="Layer 1-2-2"><circle class="cls-1" cx="66.72" cy="66.72" r="66.72"/></g></g><circle class="cls-2" cx="66.68" cy="66.72" r="25.44"/><rect class="cls-2" x="66.76" y="28.13" width="1.32" height="10.55"/><rect class="cls-2" x="66.09" y="94.76" width="1.32" height="10.55"/><rect class="cls-2" x="74.51" y="29.36" width="1.32" height="10.55" transform="translate(10.58 -17.12) rotate(13.97)"/><rect class="cls-2" x="81.56" y="31.83" width="1.32" height="10.55" transform="translate(23.99 -31.79) rotate(25.51)"/><rect class="cls-2" x="87.57" y="36" width="1.32" height="10.55" transform="translate(36.43 -41.22) rotate(32.8)"/><rect class="cls-2" x="92.64" y="41.54" width="1.32" height="10.55" transform="translate(56.19 -50.75) rotate(42.53)"/><rect class="cls-2" x="96.21" y="47.84" width="1.32" height="10.55" transform="translate(94.43 -57.33) rotate(60)"/><rect class="cls-2" x="98.71" y="54.52" width="1.32" height="10.55" transform="translate(131.35 -51.68) rotate(74.97)"/><rect class="cls-2" x="98.93" y="68.91" width="1.32" height="10.55" transform="translate(192.84 -7.82) rotate(101.99)"/><rect class="cls-2" x="96.71" y="76.03" width="1.32" height="10.55" transform="translate(210.79 24.5) rotate(113.53)"/><rect class="cls-2" x="92.74" y="82.18" width="1.32" height="10.55" transform="translate(216.37 52.07) rotate(120.83)"/><rect class="cls-2" x="87.38" y="87.45" width="1.32" height="10.55" transform="translate(215.73 86.11) rotate(130.55)"/><rect class="cls-2" x="81.21" y="91.22" width="1.32" height="10.55" transform="translate(202.42 135.01) rotate(148.02)"/><rect class="cls-2" x="74.62" y="93.96" width="1.32" height="10.55" transform="translate(176.29 172.11) rotate(162.99)"/><rect class="cls-2" x="58.33" y="94.01" width="1.32" height="10.55" transform="translate(94.51 209.18) rotate(-167.2)"/><rect class="cls-2" x="51.24" y="91.69" width="1.32" height="10.55" transform="translate(59.2 206.71) rotate(-155.66)"/><rect class="cls-2" x="45.14" y="87.64" width="1.32" height="10.55" transform="translate(36.05 196.05) rotate(-148.36)"/><rect class="cls-2" x="39.95" y="82.21" width="1.32" height="10.55" transform="translate(13.29 179.98) rotate(-138.64)"/><rect class="cls-2" x="36.26" y="75.98" width="1.32" height="10.55" transform="translate(-13.5 154.9) rotate(-121.16)"/><rect class="cls-2" x="33.62" y="69.35" width="1.32" height="10.55" transform="translate(-27.82 128.37) rotate(-106.2)"/><rect class="cls-2" x="33.86" y="53.5" width="1.32" height="10.55" transform="translate(-30.84 78.14) rotate(-76.07)"/><rect class="cls-2" x="36.32" y="46.46" width="1.32" height="10.55" transform="translate(-25.63 62.87) rotate(-64.53)"/><rect class="cls-2" x="40.49" y="40.44" width="1.32" height="10.55" transform="translate(-19.57 55.58) rotate(-57.23)"/><rect class="cls-2" x="46.03" y="35.37" width="1.32" height="10.55" transform="translate(-14.82 47.62) rotate(-47.51)"/><rect class="cls-2" x="52.33" y="31.8" width="1.32" height="10.55" transform="translate(-11.44 31.5) rotate(-30.04)"/><rect class="cls-2" x="59.01" y="29.29" width="1.32" height="10.55" transform="translate(-6.93 16.7) rotate(-15.07)"/><rect class="cls-2" x="99.4" y="60.78" width="1.32" height="10.55" transform="translate(166.12 -34) rotate(90)"/><rect class="cls-2" x="32.65" y="60.78" width="1.32" height="10.55" transform="translate(99.37 32.75) rotate(90)"/></g></g></svg>