<svg xmlns="http://www.w3.org/2000/svg" viewBox="0 0 133.44 133.44"><defs><style>.cls-1{fill:#0f1014;}.cls-2{fill:#ffe9a0;}.cls-3,.cls-4{fill:none;}.cls-4{stroke:#ffe9a0;stroke-miterlimit:10;stroke-width:2px;}</style></defs><g id="Layer_2" data-name="Layer 2"><g id="Layer_1-2" data-name="Layer 1"><g id="Layer_1-2-2" data-name="Layer 1-2"><circle class="cls-1" cx="66.72" cy="66.72" r="66.72"/><path class="cls-2" d="M73.32,113.29h0a1.89,1.89,0,0,0,.92.3,2.4,2.4,0,0,0,1.17-.3h0S81,96.15,80.78,90.39s-5.37-17.17-5.37-22.9,4.68-16.71,4.94-22.34c.27-5.89-3.53-17.57-5.27-23.41h0l-3.65-8.15,1.89,8.1h0s5.38,17.21,5.38,23-5.32,17.1-5.38,22.84S78.44,85,78.42,90.8,75,107.69,73.32,113.29Z"/><path class="cls-2" d="M78.3,76.75c.17.28.32.53.48.77H79A7.14,7.14,0,0,0,81,77c.52-.22,1-.48,1.54-.73a1.72,1.72,0,0,1,1-.15,2.56,2.56,0,0,1,.78.08,7.34,7.34,0,0,0,3.47-.42c.59-.21,1.16-.47,1.74-.7a6.44,6.44,0,0,1,1.77-.52,5.36,5.36,0,0,0,1.13-.29l2.56-1h.1L96.86,72l.24-.14a10.49,10.49,0,0,0,3.15-2.25A16.37,16.37,0,0,0,101.67,68a4.73,4.73,0,0,0,1-2c.23-1,.45-1.91.65-2.86a3.84,3.84,0,0,0,.06-1.51,7.44,7.44,0,0,1,0-2,3.82,3.82,0,0,0-.45-2.15l-.8-1.51a.24.24,0,0,0-.3-.12l-1.31.36c-.37.11-.75.21-1.11.34a5.4,5.4,0,0,1-1.53.35,6.75,6.75,0,0,0-2.29.6c-1,.43-2.08.88-3.07,1.4a2.16,2.16,0,0,0-.6.44,3.15,3.15,0,0,1-1.2.84A8.08,8.08,0,0,0,88.06,62c-.9.89-1.75,1.81-2.62,2.73a3.34,3.34,0,0,0-.72,1.32c-.11.35-.29.69-.42,1a3.49,3.49,0,0,0-.2.7,10.57,10.57,0,0,1-.79,2.64,10.23,10.23,0,0,0-.82,4.5.53.53,0,0,1-.19.44,4.84,4.84,0,0,1-2,1A6.86,6.86,0,0,1,78.3,76.75ZM101.85,56.1c.2.35.36.69.58,1a3.47,3.47,0,0,1,.67,2.06v1.9a9.9,9.9,0,0,1,0,1.54c-.14,1-.37,1.9-.57,2.85a3.26,3.26,0,0,1-.23.71,4.44,4.44,0,0,1-1.25,2.22,15.45,15.45,0,0,1-1.15,1.28c-.72.6-1.52,1.13-2.29,1.69a9.18,9.18,0,0,1-1,.48,7.1,7.1,0,0,0-.87.66,8.32,8.32,0,0,1-2,1c-.74.28-1.51.52-2.27.75-.27.09-.59.08-.86.18-.72.26-1.43.54-2.13.85a8,8,0,0,1-2.34.7,14.77,14.77,0,0,1-2.66,0,2.15,2.15,0,0,1-.45-.14l-.3-.1c0,.3-.27.41-.52.52l-.8.31c-.6.24-1.18.49-1.78.72a1.65,1.65,0,0,1-.54.09.63.63,0,0,1-.35-.11c-.08,0-.11-.17-.16-.26s.18-.08.28-.1a2,2,0,0,1,.35,0,1.84,1.84,0,0,0,.47-.06c.49-.15,1-.29,1.46-.48a4,4,0,0,0,1.4-.92.48.48,0,0,0,.15-.36,11.33,11.33,0,0,1,1-4.86,7.75,7.75,0,0,0,.46-1.41,8.66,8.66,0,0,1,.58-2,3.09,3.09,0,0,0,.22-.67A2,2,0,0,1,85.5,65c.68-.73,1.37-1.45,2-2.17a14.26,14.26,0,0,1,3.67-2.68,2.61,2.61,0,0,0,.72-.51,3.88,3.88,0,0,1,1.31-.88c.7-.32,1.39-.62,2.1-.92a8.46,8.46,0,0,1,2.7-.73,5.79,5.79,0,0,0,1-.23Z"/><path class="cls-2" d="M102.58,58a2.82,2.82,0,0,0-.38.21,6,6,0,0,1-1.67.9l-.6.16h0c.11-.17.23-.34.35-.5L101.61,57a3.81,3.81,0,0,0,.29-.52.28.28,0,0,0,0-.18,11.46,11.46,0,0,1-1.9,2.43,4,4,0,0,1-.07-.48v-.86a4,4,0,0,0,0-.49h-.07a1.76,1.76,0,0,0-.07.4v1.27a1.42,1.42,0,0,1-.27.89l-1.15,1.68c-.19.27-.4.52-.6.78l-.22.21V59.36a2.25,2.25,0,0,1,.53-1.53.87.87,0,0,0,.22-.61l-.13.1c-.16.23-.33.45-.48.68a1.17,1.17,0,0,0-.16.36,8.22,8.22,0,0,0-.17,2.57,4,4,0,0,1,0,.69.38.38,0,0,0,0,.15,1,1,0,0,1-.18.91c-.48.63-1,1.24-1.48,1.86l-.16.14a1,1,0,0,1-.1-.17,1,1,0,0,1,0-.34,3.06,3.06,0,0,0-.24-1.55,2.62,2.62,0,0,1,.17-2.14,3.57,3.57,0,0,0,.42-1.39,3.11,3.11,0,0,1,.11-.49,1.38,1.38,0,0,1,.06-.38h-.08a1.62,1.62,0,0,0-.19.37c-.06.25-.08.5-.14.75a3.5,3.5,0,0,1-.3,1A2.9,2.9,0,0,0,95,62.73a8.67,8.67,0,0,1,.25,1.83,1.13,1.13,0,0,1-.33.9L93.28,67.2H93.2a.43.43,0,0,1,0-.16,3,3,0,0,0-.2-1.3c-.18-1.13-.35-2.26-.5-3.39a3.3,3.3,0,0,1,.13-1.43,1.58,1.58,0,0,1,.57-.86,1.25,1.25,0,0,0,.42-.57c.08-.14.16-.28.25-.41l.18-.28h0l-.23.17a.81.81,0,0,0-.17.24A1.93,1.93,0,0,1,93,60a2.34,2.34,0,0,0-.74,1.74,12.06,12.06,0,0,0,.26,2.39c.12.71.25,1.41.39,2.12a2.59,2.59,0,0,1-.18,1.29.62.62,0,0,1-.14.18L91.26,69c-.14.14-.29.27-.48.43v-.26c-.15-.86-.29-1.72-.44-2.58a11.27,11.27,0,0,1-.27-3.12,4.47,4.47,0,0,1,1.41-3c.17-.15.36-.29.55-.45a.82.82,0,0,0-.57.24,3.63,3.63,0,0,0-1.37,2.13,2.55,2.55,0,0,1-.15.65,5,5,0,0,0-.09,1.8,20.25,20.25,0,0,0,.61,3.27,4.94,4.94,0,0,1,.07,1.15.81.81,0,0,1-.31.61l-1.93,1.71h-.07v-.2A11.23,11.23,0,0,1,88,69.29a11,11,0,0,0-.21-1.38,11.75,11.75,0,0,1-.06-2.65A3.74,3.74,0,0,1,88,63.78a5.22,5.22,0,0,0,.18-.56l.19-.48v-.18h-.08a2.86,2.86,0,0,0-.24.42c-.08.21-.12.43-.2.64s-.15.35-.23.53v.12c-.06.77-.16,1.55-.16,2.32a17.28,17.28,0,0,0,.19,1.89c.11.92.22,1.84.32,2.76a2.67,2.67,0,0,1,0,.4.67.67,0,0,1-.4.57,4.14,4.14,0,0,0-.91.71c-.21.19-.45.38-.68.56h-.06v-.23a3.72,3.72,0,0,0,.08-1c0-.55.08-1.1.1-1.65a4.78,4.78,0,0,0-.08-.75,5.57,5.57,0,0,1,0-1,22.48,22.48,0,0,1,.09-2.46,3.11,3.11,0,0,1,.54-1.56v-.07h0a1.21,1.21,0,0,0-.21.24,4.73,4.73,0,0,0-.56,2.36,20,20,0,0,0,.08,3,5.61,5.61,0,0,1-.07,1v.91a3,3,0,0,1-.14,1.16c-.19.58-.74.84-1.22,1.16a2,2,0,0,1-.32.17h-.06a4.9,4.9,0,0,0,.24-.52.61.61,0,0,0,.08-.26c0-1.17.07-2.33.12-3.5a7.69,7.69,0,0,1,.17-1.07,5.17,5.17,0,0,1,.18-.51.35.35,0,0,1,.08-.26H85c-.07.15-.15.29-.21.43a7.38,7.38,0,0,0-.3,1.74,13.5,13.5,0,0,0-.14,2.84,1.45,1.45,0,0,1-.43,1.15c-.22.24-.39.53-.82.61a.37.37,0,0,0,.41.08,1.41,1.41,0,0,0,.32-.17A1.58,1.58,0,0,1,85,75.1a2.85,2.85,0,0,0,1.3,0A8.8,8.8,0,0,1,87.9,75a5.85,5.85,0,0,0,2.22-.47l-.91.19a3.55,3.55,0,0,1-1.3.11h-.1a2.41,2.41,0,0,1-1,0,1.62,1.62,0,0,0-.62,0,1.94,1.94,0,0,1-.68.06c-.31,0-.62-.06-.93-.11l.37-.29c.43-.32.88-.63,1.3-1a1.56,1.56,0,0,1,1.4-.27c.61.16,1.24.27,1.86.37a5.56,5.56,0,0,0,1.82,0c.77-.12,1.53-.24,2.3-.38a2.47,2.47,0,0,0,.64-.19V73A.62.62,0,0,0,94,73a15.37,15.37,0,0,1-2.13.4l-.51.1a3.93,3.93,0,0,1-1.45,0c-.82-.16-1.65-.31-2.48-.45l-.57,0c.17-.15.3-.27.44-.38l.79-.62a1.72,1.72,0,0,1,1.22-.32,5.75,5.75,0,0,1,1.09.17,6.34,6.34,0,0,0,1.74.07,13.69,13.69,0,0,1,1.43-.07A8,8,0,0,0,97.1,71a6.5,6.5,0,0,0,1.63-1,1.43,1.43,0,0,0,.14-.2h-.11a7.09,7.09,0,0,1-2.55,1.37,9.2,9.2,0,0,1-2.94.49c-.62,0-1.24.07-1.86.07A11.2,11.2,0,0,1,90,71.6a4.24,4.24,0,0,0-1.33,0,1.71,1.71,0,0,1,.21-.26c.42-.37.85-.74,1.25-1.12a1.82,1.82,0,0,1,1.34-.54,5.56,5.56,0,0,0,.82-.09,1.83,1.83,0,0,1,.93,0,5,5,0,0,0,2.67,0c.57-.12,1.12-.28,1.68-.41q.32-.11.63-.18a4.35,4.35,0,0,0,2-.75l.91-.64a.53.53,0,0,0,.12-.14h0l-.29.2a6.26,6.26,0,0,1-1.85,1c-.39.1-.8.14-1.19.22-.63.14-1.26.31-1.89.45a6.26,6.26,0,0,1-2.28.18,1.55,1.55,0,0,1-.31-.06,2.45,2.45,0,0,0-1.42,0l-.86.12,0-.06c.07-.09.12-.21.22-.27a4.51,4.51,0,0,0,1-.9l1.26-1.2a1,1,0,0,1,.85-.23,4.1,4.1,0,0,0,.48.1h.82a7.12,7.12,0,0,0,2.71-.3,15.35,15.35,0,0,0,3-1.15,4,4,0,0,0,1.13-1l-.34.19-.46.34a3.41,3.41,0,0,1-.94.55c-.58.23-1.13.51-1.73.7a10.07,10.07,0,0,1-4,.49L94,66.75c.09-.12.17-.25.27-.37.38-.42.77-.83,1.14-1.27a2.33,2.33,0,0,1,1.5-.75,6.52,6.52,0,0,1,.88-.07,6.71,6.71,0,0,0,3.07-.83c.55-.28,1.08-.59,1.62-.89a.82.82,0,0,0,.41-.41c-.66.37-1.32.76-2,1.13a7.94,7.94,0,0,1-1.77.63A6.25,6.25,0,0,1,98,64a14.92,14.92,0,0,0-1.84.23v-.1a4,4,0,0,1,.35-.44l1.14-1.46a.82.82,0,0,1,.2-.17,5.12,5.12,0,0,1,.73-.39,8.7,8.7,0,0,1,1.22-.4,4.33,4.33,0,0,0,1.26-.46c.36-.19.75-.33,1.12-.51a2.42,2.42,0,0,0,.36-.27l-.05-.07c-.3.15-.6.28-.88.45a7.46,7.46,0,0,1-2.43.88c-.33.07-.65.2-1,.31a2,2,0,0,1,.23-.4,5.22,5.22,0,0,0,.8-1.18,1.46,1.46,0,0,1,.93-.66,12.34,12.34,0,0,0,1.33-.47,2.62,2.62,0,0,0,1.08-.84Z"/><path class="cls-2" d="M76.79,51.89c-.12.19-.21.36-.32.52s-.09,0-.13,0A5.21,5.21,0,0,1,75,52.05c-.36-.14-.71-.31-1.06-.48a1.37,1.37,0,0,0-.66-.1,1.63,1.63,0,0,0-.53.06,4.94,4.94,0,0,1-2.35-.25c-.41-.14-.8-.31-1.2-.46a4.57,4.57,0,0,0-1.2-.34,4.13,4.13,0,0,1-.77-.19l-1.75-.62h-.07l-1.24-.82a.56.56,0,0,0-.17-.09,7.68,7.68,0,0,1-2.16-1.5c-.36-.35-.67-.72-1-1.09a3.39,3.39,0,0,1-.69-1.33c-.17-.65-.32-1.3-.47-2a2.82,2.82,0,0,1-.06-1,5.16,5.16,0,0,0,0-1.36A2.6,2.6,0,0,1,59.85,39c.17-.35.35-.69.53-1,0-.08.1-.1.2-.08l.89.23c.26.07.51.14.76.23a3.78,3.78,0,0,0,1.05.22,4.65,4.65,0,0,1,1.56.39,19.7,19.7,0,0,1,2.1.93,1.33,1.33,0,0,1,.41.29,2.14,2.14,0,0,0,.83.56A5.48,5.48,0,0,1,70,42c.62.59,1.22,1.22,1.82,1.83a2.38,2.38,0,0,1,.5.89c.08.24.21.47.3.71a2.54,2.54,0,0,1,.14.47,7,7,0,0,0,.57,1.79,7.26,7.26,0,0,1,.61,3.05.35.35,0,0,0,.14.3,3.24,3.24,0,0,0,1.33.68A4.93,4.93,0,0,0,76.79,51.89ZM60.54,38.05c-.13.24-.24.47-.38.69a2.34,2.34,0,0,0-.43,1.4v1.29a5.57,5.57,0,0,0,0,1c.11.65.27,1.29.42,1.93a2.26,2.26,0,0,0,.16.48,3.11,3.11,0,0,0,.88,1.5,10.85,10.85,0,0,0,.8.86,17.55,17.55,0,0,0,1.57,1.13,3.73,3.73,0,0,0,.71.31,6.7,6.7,0,0,1,.6.45,5.6,5.6,0,0,0,1.34.67c.51.18,1,.34,1.55.49.19.06.4,0,.59.11.49.18,1,.36,1.46.56a5,5,0,0,0,1.6.46,10.82,10.82,0,0,0,1.8,0l.31-.1.19-.07c0,.2.2.28.37.35l.55.21c.4.15.8.32,1.21.46a.78.78,0,0,0,.37.06.51.51,0,0,0,.24-.07.52.52,0,0,0,.1-.18L76.36,52h-.24a.81.81,0,0,1-.31,0c-.34-.1-.68-.2-1-.32a2.65,2.65,0,0,1-1-.61.35.35,0,0,1-.1-.25A7.61,7.61,0,0,0,73,47.5a5.34,5.34,0,0,1-.33-1,6.58,6.58,0,0,0-.42-1.37,1.7,1.7,0,0,1-.15-.45,1.54,1.54,0,0,0-.39-.72c-.48-.48-1-1-1.42-1.45a9.8,9.8,0,0,0-2.53-1.8,1.63,1.63,0,0,1-.49-.33,2.5,2.5,0,0,0-.9-.6L65,39.2a5.82,5.82,0,0,0-1.84-.48,3.34,3.34,0,0,1-.7-.14Z"/><path class="cls-2" d="M60.07,39.34l.26.14a4.21,4.21,0,0,0,1.15.6l.4.1h0l-.25-.33c-.3-.41-.62-.8-.92-1.21a2.43,2.43,0,0,1-.2-.35.13.13,0,0,1,0-.12,8.42,8.42,0,0,0,1.3,1.67V38.6h0a1.22,1.22,0,0,1,0,.27v.87a.92.92,0,0,0,.19.6c.27.38.53.76.8,1.13.13.18.28.35.42.53l.15.14V40.27a1.53,1.53,0,0,0-.37-1,.53.53,0,0,1-.16-.41.27.27,0,0,1,.08.07,5,5,0,0,1,.34.46.66.66,0,0,1,.11.24,5.38,5.38,0,0,1,.15,1.74,3.84,3.84,0,0,0,0,.48.17.17,0,0,1,0,.1.67.67,0,0,0,.13.61l1,1.25.11.1a.33.33,0,0,0,.06-.12.45.45,0,0,0,0-.23A2.26,2.26,0,0,1,65,42.5a1.75,1.75,0,0,0,0-1.5,2.41,2.41,0,0,1-.3-.94,2,2,0,0,0-.08-.33,1.13,1.13,0,0,1,0-.26h.06a1.19,1.19,0,0,1,.13.25,2.3,2.3,0,0,0,.1.51,2.63,2.63,0,0,0,.22.67,2,2,0,0,1,.19,1.62,5.27,5.27,0,0,0-.14,1.25.76.76,0,0,0,.23.6l1.14,1.18h.06a.21.21,0,0,0,0-.11,2.22,2.22,0,0,1,0-.89q.16-1.15.3-2.31a2.41,2.41,0,0,0-.1-1,1.17,1.17,0,0,0-.4-.58.87.87,0,0,1-.3-.38A1.67,1.67,0,0,0,66,40c0-.06-.09-.12-.13-.19h0l.16.12a.36.36,0,0,1,.11.16,1.27,1.27,0,0,0,.42.55,1.6,1.6,0,0,1,.52,1.18A7.87,7.87,0,0,1,67,43.43c-.07.48-.15,1-.23,1.44a1.62,1.62,0,0,0,.14.87.27.27,0,0,0,.09.12c.3.29.61.57.92.85.1.09.2.18.33.28a.49.49,0,0,1,0-.17l.27-1.76a8.39,8.39,0,0,0,.15-2.12,3,3,0,0,0-1-2c-.12-.1-.24-.2-.38-.3a.58.58,0,0,1,.39.15,2.54,2.54,0,0,1,1,1.44,1.77,1.77,0,0,0,.11.44,3.58,3.58,0,0,1,.08,1.22,14,14,0,0,1-.37,2.23,3.39,3.39,0,0,0,0,.78.6.6,0,0,0,.22.42L70,48.45h0v-.14c0-.48.06-1,.1-1.43a8.22,8.22,0,0,1,.13-.94,7.74,7.74,0,0,0,0-1.8,2.61,2.61,0,0,0-.23-1c0-.12-.08-.25-.13-.37l-.13-.33v-.12h0a2.75,2.75,0,0,1,.17.29c.06.14.09.29.14.43a3,3,0,0,0,.17.36c.06.12,0,0,0,.08,0,.53.13,1.05.14,1.57a11.22,11.22,0,0,1-.11,1.29l-.18,1.88a1.22,1.22,0,0,0,0,.27.45.45,0,0,0,.28.39,2.6,2.6,0,0,1,.62.47l.47.38h0v-.16a2.72,2.72,0,0,1-.06-.7c0-.38-.08-.75-.1-1.13a4.34,4.34,0,0,1,0-.51v-.67a10.33,10.33,0,0,0-.09-1.67A2.27,2.27,0,0,0,71,43.8h0a.75.75,0,0,1,.15.16,3.2,3.2,0,0,1,.4,1.6,13.35,13.35,0,0,1,0,2,4.37,4.37,0,0,0,.06.72v.62a2.3,2.3,0,0,0,.11.78c.14.39.51.56.85.78a.84.84,0,0,0,.21.11h0c-.06-.12-.12-.24-.17-.36a1.48,1.48,0,0,1,0-.21c0-.79-.07-1.58-.12-2.37a4.45,4.45,0,0,0-.12-.73,1.19,1.19,0,0,0-.13-.34l-.06-.18h0c0,.1.11.19.15.29a4.73,4.73,0,0,1,.22,1.18,9.59,9.59,0,0,1,.13,1.93,1,1,0,0,0,.3.77c.16.17.27.36.57.41a.26.26,0,0,1-.28.06L73,50.91a1,1,0,0,0-.82-.14,1.87,1.87,0,0,1-.88,0,6.73,6.73,0,0,0-1.1,0,3.58,3.58,0,0,1-1.51-.3l.61.12a2.43,2.43,0,0,0,.89.07h.07a1.89,1.89,0,0,0,.67,0,1.48,1.48,0,0,1,.42,0,1.77,1.77,0,0,0,.46,0q.32,0,.63-.09l-.25-.19-.9-.64a1,1,0,0,0-1-.17c-.41.11-.83.19-1.26.27a3.63,3.63,0,0,1-1.23,0l-1.57-.24a2.23,2.23,0,0,1-.44-.13h.18a10.22,10.22,0,0,0,1.45.25l.36.07a2.41,2.41,0,0,0,1,0l1.68-.32.34,0-.3-.26L70,48.75a1.08,1.08,0,0,0-.83-.21,3.71,3.71,0,0,0-.73.12,4.26,4.26,0,0,1-1.18.07,8.34,8.34,0,0,0-1,0,5.56,5.56,0,0,1-2.41-.52,4.32,4.32,0,0,1-1.11-.67.76.76,0,0,1-.11-.14h0a4.88,4.88,0,0,0,1.75.91,6.48,6.48,0,0,0,2,.31h1.27a8.27,8.27,0,0,0,1-.11,2.72,2.72,0,0,1,.9,0l-.15-.17c-.28-.26-.58-.5-.86-.76a1.31,1.31,0,0,0-.92-.35,5,5,0,0,1-.55,0,1.16,1.16,0,0,0-.64,0,3.47,3.47,0,0,1-1.81,0c-.39-.08-.77-.19-1.15-.27h-.45a2.86,2.86,0,0,1-1.4-.5L61,46,61,46h0a1.37,1.37,0,0,0,.2.13,4.22,4.22,0,0,0,1.27.64c.26.06.54.08.81.14l1.29.29a4.49,4.49,0,0,0,1.55.1h.21a1.56,1.56,0,0,1,1,0l.59.08L68,47c0-.06-.08-.14-.15-.17a2.77,2.77,0,0,1-.71-.61l-.88-.81a.65.65,0,0,0-.58-.14c-.11,0-.21.06-.32.07H64.8a5,5,0,0,1-1.8-.15,11,11,0,0,1-2-.76,2.71,2.71,0,0,1-.78-.69l.24.12.31.23a2.51,2.51,0,0,0,.64.36c.4.16.78.34,1.19.47a6.86,6.86,0,0,0,2.7.3l.72-.07a2.35,2.35,0,0,0-.19-.25c-.26-.28-.53-.56-.78-.85a1.6,1.6,0,0,0-1-.5,3,3,0,0,0-.6,0,4.68,4.68,0,0,1-2.1-.54c-.38-.19-.74-.39-1.11-.59a.63.63,0,0,1-.28-.28c.45.25.9.51,1.36.75a4.35,4.35,0,0,0,1.21.42,3.5,3.5,0,0,0,.79.11,10.62,10.62,0,0,1,1.25.14v-.07l-.24-.3-.8-1a.37.37,0,0,0-.13-.12c-.17-.09-.33-.19-.5-.26a7.87,7.87,0,0,0-.84-.26,3.25,3.25,0,0,1-.86-.3c-.25-.13-.52-.22-.77-.34a1.44,1.44,0,0,1-.25-.18h0c.2.09.4.18.6.29a4.9,4.9,0,0,0,1.66.58,6,6,0,0,1,.69.2,1.2,1.2,0,0,0-.16-.27,4.35,4.35,0,0,1-.56-.79,1,1,0,0,0-.64-.44c-.3-.1-.61-.19-.9-.31a1.88,1.88,0,0,1-.75-.56Z"/><line class="cls-3" x1="54.24" y1="13.59" x2="54.24" y2="113.59"/><line class="cls-4" x1="54.65" y1="25.53" x2="54.65" y2="101.65"/><polygon class="cls-2" points="49.34 31.15 54.65 28 59.96 31.15 54.65 13.59 49.34 31.15"/><polygon class="cls-2" points="49.34 96.03 54.65 99.18 59.96 96.03 54.65 113.59 49.34 96.03"/></g></g></g></svg>