<?xml version="1.0" encoding="utf-8"?>
<!-- Generator: Adobe Illustrator 24.1.2, SVG Export Plug-In . SVG Version: 6.00 Build 0)  -->
<svg version="1.0" id="Layer_1" xmlns="http://www.w3.org/2000/svg" xmlns:xlink="http://www.w3.org/1999/xlink" x="0px" y="0px"
	 viewBox="0 0 133.4 133.4" style="enable-background:new 0 0 133.4 133.4;" xml:space="preserve">
<style type="text/css">
	.st0{fill:#FFE9A0;}
	.st1{fill:#0F1014;stroke:#0F1014;stroke-miterlimit:10;}
	.st2{fill:#0F1014;}
</style>
<g id="Layer_2_1_">
	<g id="Layer_1-2">
		<circle class="st0" cx="66.7" cy="66.7" r="66.7"/>
		<g>
			<g>
				<line class="st1" x1="30" y1="99.1" x2="104.5" y2="99.1"/>
				<polygon class="st2" points="32.3,102.8 30.7,99.1 32.3,95.4 23.5,99.1 				"/>
				<polygon class="st2" points="101.2,102.8 102.8,99.1 101.2,95.4 110,99.1 				"/>
			</g>
		</g>
	</g>
</g>
<g>
	<path class="st2" d="M39.6,61.9c2.6,5.7,3.2,14.4,5.3,20.7H22.6c2.4-6.3,3.8-15,6.3-20.7l-7,6c2.9-6.3,7.5-19.3,10.3-25.6l-6.7,6
		c3.2-7,5.7-14.9,8.8-21.8c3.1,6.8,5.9,16.1,9.1,23.1l-7.3-7.5c2.8,6.3,6.9,18.7,9.7,25L39.6,61.9z"/>
	<rect x="32.9" y="79.4" class="st2" width="2" height="11.2"/>
</g>
<g>
	<path class="st2" d="M103.8,61.9c2.6,5.7,3.2,14.4,5.3,20.7H86.8c2.4-6.3,3.8-15,6.3-20.7l-7,6c2.9-6.3,7.5-19.3,10.3-25.6l-6.7,6
		c3.2-7,5.7-14.9,8.8-21.8c3.1,6.8,5.9,16.1,9.1,23.1l-7.3-7.5c2.8,6.3,6.9,18.7,9.7,25L103.8,61.9z"/>
	<rect x="97" y="79.4" class="st2" width="2" height="11.2"/>
</g>
</svg>
