<?xml version="1.0" encoding="utf-8"?>
<!-- Generator: Adobe Illustrator 24.1.2, SVG Export Plug-In . SVG Version: 6.00 Build 0)  -->
<svg version="1.1" id="Layer_1" xmlns="http://www.w3.org/2000/svg" xmlns:xlink="http://www.w3.org/1999/xlink" x="0px" y="0px"
	 viewBox="0 0 133.4 133.4" style="enable-background:new 0 0 133.4 133.4;" xml:space="preserve">
<style type="text/css">
	.st0{fill:#FFE9A0;}
	.st1{fill:#0F1014;}
	.st2{fill:#0F1014;stroke:#FFE9A0;stroke-width:2;stroke-miterlimit:10;}
	.st3{fill:#0F1014;stroke:#000000;stroke-width:2;stroke-miterlimit:10;}
</style>
<g id="Layer_2_1_">
	<g id="Layer_1-2">
		<g id="Layer_1-2-2">
			<g id="Layer_1-2-2-2">
				<circle class="st0" cx="66.1" cy="66.7" r="66.7"/>
			</g>
		</g>
		<circle class="st1" cx="66.7" cy="68.9" r="25.4"/>
		<rect x="66.8" y="30.3" class="st1" width="1.3" height="10.6"/>
		<rect x="66.1" y="96.9" class="st1" width="1.3" height="10.6"/>
		
			<rect x="69.9" y="36.1" transform="matrix(0.2414 -0.9704 0.9704 0.2414 21.3069 100.8588)" class="st1" width="10.5" height="1.3"/>
		
			<rect x="76.9" y="38.6" transform="matrix(0.4307 -0.9025 0.9025 0.4307 11.3652 96.5573)" class="st1" width="10.6" height="1.3"/>
		<rect x="83" y="42.8" transform="matrix(0.5417 -0.8406 0.8406 0.5417 3.929 94.0715)" class="st1" width="10.5" height="1.3"/>
		<rect x="88" y="48.3" transform="matrix(0.676 -0.7369 0.7369 0.676 -5.8641 84.6253)" class="st1" width="10.5" height="1.3"/>
		<rect x="91.6" y="54.6" transform="matrix(0.866 -0.5 0.5 0.866 -14.6638 55.8395)" class="st1" width="10.5" height="1.3"/>
		
			<rect x="94.1" y="61.3" transform="matrix(0.9658 -0.2593 0.2593 0.9658 -12.6684 27.8887)" class="st1" width="10.5" height="1.3"/>
		
			<rect x="98.9" y="71.1" transform="matrix(0.2077 -0.9782 0.9782 0.2077 4.213 157.9005)" class="st1" width="1.3" height="10.6"/>
		
			<rect x="96.7" y="78.2" transform="matrix(0.3992 -0.9169 0.9169 0.3992 -18.0382 139.4271)" class="st1" width="1.3" height="10.6"/>
		
			<rect x="92.7" y="84.3" transform="matrix(0.5125 -0.8587 0.8587 0.5125 -31.4155 123.8952)" class="st1" width="1.3" height="10.6"/>
		
			<rect x="87.4" y="89.6" transform="matrix(0.6501 -0.7598 0.7598 0.6501 -41.296 100.095)" class="st1" width="1.3" height="10.6"/>
		
			<rect x="81.2" y="93.4" transform="matrix(0.8482 -0.5296 0.5296 0.8482 -39.8399 58.3367)" class="st1" width="1.3" height="10.6"/>
		
			<rect x="74.6" y="96.1" transform="matrix(0.9563 -0.2925 0.2925 0.9563 -26.371 26.4562)" class="st1" width="1.3" height="10.6"/>
		
			<rect x="53.7" y="100.8" transform="matrix(0.2215 -0.9751 0.9751 0.2215 -53.0203 136.4956)" class="st1" width="10.6" height="1.3"/>
		
			<rect x="46.6" y="98.5" transform="matrix(0.4122 -0.9111 0.9111 0.4122 -59.8287 105.5435)" class="st1" width="10.6" height="1.3"/>
		
			<rect x="40.5" y="94.4" transform="matrix(0.5246 -0.8514 0.8514 0.5246 -59.1765 84.196)" class="st1" width="10.6" height="1.3"/>
		
			<rect x="35.3" y="89" transform="matrix(0.6608 -0.7506 0.7506 0.6608 -53.5068 60.8956)" class="st1" width="10.6" height="1.3"/>
		
			<rect x="31.7" y="82.8" transform="matrix(0.8557 -0.5174 0.5174 0.8557 -37.8394 31.1442)" class="st1" width="10.6" height="1.3"/>
		<rect x="29" y="76.1" transform="matrix(0.9603 -0.279 0.279 0.9603 -20.064 12.6125)" class="st1" width="10.6" height="1.3"/>
		
			<rect x="33.9" y="55.7" transform="matrix(0.2407 -0.9706 0.9706 0.2407 -32.9481 79.777)" class="st1" width="1.3" height="10.6"/>
		<rect x="36.3" y="48.6" transform="matrix(0.43 -0.9028 0.9028 0.43 -27.5803 64.104)" class="st1" width="1.3" height="10.5"/>
		
			<rect x="40.5" y="42.6" transform="matrix(0.5413 -0.8409 0.8409 0.5413 -21.3918 56.5618)" class="st1" width="1.3" height="10.5"/>
		<rect x="46" y="37.5" transform="matrix(0.6755 -0.7374 0.7374 0.6755 -16.4145 48.321)" class="st1" width="1.3" height="10.5"/>
		
			<rect x="52.3" y="34" transform="matrix(0.8657 -0.5006 0.5006 0.8657 -12.5212 31.7978)" class="st1" width="1.3" height="10.5"/>
		<rect x="59" y="31.5" transform="matrix(0.9656 -0.26 0.26 0.9656 -7.4963 16.7784)" class="st1" width="1.3" height="10.5"/>
		<rect x="94.8" y="67.6" class="st1" width="10.6" height="1.3"/>
		<rect x="28" y="67.6" class="st1" width="10.6" height="1.3"/>
		<path class="st2" d="M113.3,94.7c-1.4-3.7-5-6.2-9-6.2c-1.3,0-2.5,0.3-3.3-1.1c0-0.1-0.1-0.1-0.2-0.1c-2.3-1.8-4.9-3.1-7.8-3.7
			c-0.4,0-0.7-0.4-0.8-0.8c-0.3-1.4-0.7-2.9-1.2-4.2c-2.7-6.4-8.3-11-15-12.5c-1.2-0.3-2.4-0.4-3.7-0.6h-3.2
			c-0.2,0.1-0.4,0.1-0.7,0.1c-4.3,0.4-8.5,2.1-11.8,4.9c-2.8,2.3-5,5.2-6.3,8.6c-2.3-0.8-4.9-0.6-7,0.7c-2.1,1.2-3.6,3.2-3.9,5.6
			c-2,0.1-3.8,0.1-5.6,0.3C30,86.1,26.5,88,24,90.9c-3.2,3.7-3,9.3,0.3,12.9c4.1,4.4,9.3,5.6,15.1,4.9c1.7-0.3,3.4-0.6,5-1.1
			c0.6,0.9,1.3,1.8,2,2.7c4.1,4.5,11,5,15.7,1.2c0.6-0.4,0.9-0.7,1.7-0.4c2.9,1.2,6,1.3,9,0.5c1.5-0.5,3-1,4.4-1.7
			c1,0.8,2.1,1.5,3.2,2.1c1.1,0.6,2.3,1.1,3.6,1.5c1.2,0.3,2.5,0.6,3.7,0.8h2.6c0.2,0,0.3-0.1,0.5-0.1c4.3-0.2,8.4-2.2,11.3-5.4
			c0.9-1,1.8-1.9,3.3-1.6c0.2,0,0.4-0.1,0.7-0.1c5.1-1,8.5-5.9,7.5-11C113.6,95.6,113.4,95.1,113.3,94.7z M105.9,105.7
			c-0.7,0.1-1.4,0.2-2.1,0.2c-0.6-0.1-1.2,0.2-1.6,0.8c-2.7,3.6-6.8,5.9-11.3,6.2c-4.2,0.5-8.5-0.7-11.9-3.3c-0.6-0.5-1.2-1-1.6-1.4
			c-1.7,0.8-3.4,1.5-5.1,2.1c-2.9,0.8-5.9,0.6-8.6-0.7c-0.6-0.4-1.4-0.2-1.8,0.3c-1.8,1.8-4.2,2.8-6.8,2.8c-2.9,0.1-5.7-1.1-7.6-3.3
			c-0.9-1.1-1.7-2.3-2.5-3.5c-1.6,0.6-3.2,1-4.9,1.4c-5.4,0.9-10.4,0-14.5-4c-3.7-3.7-3.5-9.3,0.8-12.9c3.8-3.1,8.1-3.9,12.8-3.3
			c0.1,0,0.3,0,0.4,0h1c-0.1-2.5,1.3-4.9,3.5-6.1c2.1-1.3,4.9-1.3,7,0c0.2-0.4,0.3-0.8,0.5-1.1c3-7.4,8.6-11.7,16.4-12.8
			c5.7-0.9,11.6,0.7,16,4.5c3.5,2.8,5.9,6.7,6.7,11c0.1,0.3,0.1,0.6,0.1,0.9c-0.1,1,0.4,1.2,1.3,1.4c2.9,0.5,5.7,1.8,8,3.7
			c0,0,0,0,0,0.1c0.9,1.5,2.2,1.4,3.7,1.3c3.9-0.2,7.4,2.4,8.4,6.1c0.9,4.4-1.8,8.7-6.2,9.6C106,105.6,105.9,105.6,105.9,105.7
			L105.9,105.7z"/>
		<path class="st3" d="M106.1,107c-0.2,0-0.5,0.2-0.7,0.1c-1.5-0.3-2.3,0.6-3.3,1.6c-2.9,3.2-7,5.2-11.3,5.4c-0.2,0-0.4,0.1-0.5,0.1
			h-2.6c-1.3-0.2-2.5-0.4-3.7-0.8c-1.3-0.4-2.5-0.9-3.7-1.5c-1.1-0.6-2.2-1.4-3.2-2.1c-1.4,0.6-2.9,1.2-4.4,1.7
			c-3,0.9-6.1,0.7-9-0.5c-0.8-0.3-1.1,0-1.7,0.4c-4.7,3.8-11.6,3.3-15.7-1.2c-0.7-0.9-1.4-1.7-2-2.7c-1.6,0.5-3.3,0.8-5,1.1
			c-5.8,0.7-11-0.6-15.1-4.9c-3.3-3.6-3.4-9.2-0.2-12.9c2.5-3,6-4.9,9.9-5.3c1.8-0.2,3.7-0.2,5.6-0.3c0.4-2.4,1.8-4.4,3.9-5.6
			c2.1-1.3,4.7-1.6,7-0.7c1.3-3.4,3.5-6.4,6.3-8.6c3.3-2.8,7.5-4.5,11.8-4.9c0.2,0,0.4-0.1,0.7-0.1h3.2c1.2,0.2,2.5,0.3,3.7,0.6
			c6.7,1.5,12.2,6.2,14.8,12.5c0.5,1.4,0.9,2.8,1.2,4.2c0,0.4,0.4,0.7,0.8,0.8c2.9,0.6,5.5,1.9,7.8,3.7c0.1,0,0.2,0.1,0.2,0.1
			c0.8,1.3,2,1.1,3.3,1.1c4,0,7.6,2.5,9,6.2c1.7,4.9-0.9,10.3-5.8,12C107,106.8,106.6,106.9,106.1,107z"/>
	</g>
</g>
</svg>
