<?xml version="1.0" encoding="utf-8"?>
<!-- Generator: Adobe Illustrator 24.1.2, SVG Export Plug-In . SVG Version: 6.00 Build 0)  -->
<svg version="1.1" id="Layer_1" xmlns="http://www.w3.org/2000/svg" xmlns:xlink="http://www.w3.org/1999/xlink" x="0px" y="0px"
	 viewBox="0 0 133.4 133.4" style="enable-background:new 0 0 133.4 133.4;" xml:space="preserve">
<style type="text/css">
	.st0{fill:#FFE9A0;}
	.st1{fill:#0F1014;stroke:#0F1014;stroke-miterlimit:10;}
	.st2{fill:#0F1014;}
</style>
<g id="Layer_2_1_">
	<g id="Layer_1-2">
		<circle class="st0" cx="66.7" cy="66.7" r="66.7"/>
		<g>
			<g>
				<line class="st1" x1="50.8" y1="108.1" x2="83.1" y2="108.1"/>
				<polygon class="st2" points="51.8,111 51.1,108.1 51.8,105.2 48,108.1 				"/>
				<polygon class="st2" points="81.6,111 82.3,108.1 81.6,105.2 85.4,108.1 				"/>
			</g>
		</g>
	</g>
</g>
<g>
	<path class="st2" d="M73.3,59.1c2.9,7.7,3.6,19.4,6,27.9H54.1c2.6-8.5,4.2-20.2,7.1-27.9l-7.9,8.1c3.2-8.6,8.4-26.1,11.6-34.5
		l-7.5,8.1c3.6-9.5,6.4-20.1,9.9-29.4c3.5,9.2,6.6,21.7,10.2,31.2l-8.2-10.2C72.4,41,77,57.7,80.2,66.2L73.3,59.1z"/>
	<rect x="65.6" y="82.7" class="st2" width="2.2" height="15.2"/>
</g>
</svg>
