<?xml version="1.0" encoding="utf-8"?>
<!-- Generator: Adobe Illustrator 24.1.2, SVG Export Plug-In . SVG Version: 6.00 Build 0)  -->
<svg version="1.1" id="Layer_1" xmlns="http://www.w3.org/2000/svg" xmlns:xlink="http://www.w3.org/1999/xlink" x="0px" y="0px"
	 viewBox="0 0 133.4 133.4" style="enable-background:new 0 0 133.4 133.4;" xml:space="preserve">
<style type="text/css">
	.st0{fill:#FFE9A0;}
	.st1{fill:#0F1014;}
</style>
<g id="Layer_2_1_">
	<g id="Layer_1-2">
		<g id="Layer_1-2-2">
			<g id="Layer_1-2-2-2">
				<circle class="st0" cx="66.1" cy="66.7" r="66.7"/>
			</g>
		</g>
		<circle class="st1" cx="66.7" cy="66.7" r="25.4"/>
		<rect x="66.8" y="28.1" class="st1" width="1.3" height="10.6"/>
		<rect x="66.1" y="94.8" class="st1" width="1.3" height="10.6"/>
		<rect x="69.9" y="34" transform="matrix(0.2414 -0.9704 0.9704 0.2414 23.4062 99.2177)" class="st1" width="10.5" height="1.3"/>
		
			<rect x="76.9" y="36.4" transform="matrix(0.4307 -0.9025 0.9025 0.4307 13.3176 95.3256)" class="st1" width="10.6" height="1.3"/>
		<rect x="83" y="40.6" transform="matrix(0.5417 -0.8406 0.8406 0.5417 5.7474 93.0801)" class="st1" width="10.5" height="1.3"/>
		<rect x="88" y="46.2" transform="matrix(0.676 -0.7369 0.7369 0.676 -4.2699 83.9244)" class="st1" width="10.5" height="1.3"/>
		<rect x="91.6" y="52.5" transform="matrix(0.866 -0.5 0.5 0.866 -13.5821 55.5497)" class="st1" width="10.5" height="1.3"/>
		
			<rect x="94.1" y="59.1" transform="matrix(0.9658 -0.2593 0.2593 0.9658 -12.1074 27.8147)" class="st1" width="10.5" height="1.3"/>
		
			<rect x="98.9" y="68.9" transform="matrix(0.2077 -0.9782 0.9782 0.2077 6.3291 156.1865)" class="st1" width="1.3" height="10.6"/>
		
			<rect x="96.7" y="76" transform="matrix(0.3992 -0.9169 0.9169 0.3992 -16.0547 138.1274)" class="st1" width="1.3" height="10.6"/>
		
			<rect x="92.7" y="82.2" transform="matrix(0.5125 -0.8587 0.8587 0.5125 -29.5578 122.8406)" class="st1" width="1.3" height="10.6"/>
		
			<rect x="87.4" y="87.4" transform="matrix(0.6501 -0.7598 0.7598 0.6501 -39.6522 99.3381)" class="st1" width="1.3" height="10.6"/>
		
			<rect x="81.2" y="91.2" transform="matrix(0.8482 -0.5296 0.5296 0.8482 -38.6942 58.0084)" class="st1" width="1.3" height="10.6"/>
		
			<rect x="74.6" y="94" transform="matrix(0.9563 -0.2925 0.2925 0.9563 -25.7382 26.3616)" class="st1" width="1.3" height="10.6"/>
		
			<rect x="53.7" y="98.6" transform="matrix(0.2215 -0.9751 0.9751 0.2215 -50.9107 134.8115)" class="st1" width="10.6" height="1.3"/>
		
			<rect x="46.6" y="96.3" transform="matrix(0.4122 -0.9111 0.9111 0.4122 -57.8577 104.2718)" class="st1" width="10.6" height="1.3"/>
		
			<rect x="40.5" y="92.3" transform="matrix(0.5246 -0.8514 0.8514 0.5246 -57.3347 83.1675)" class="st1" width="10.6" height="1.3"/>
		
			<rect x="35.3" y="86.8" transform="matrix(0.6608 -0.7506 0.7506 0.6608 -51.883 60.1618)" class="st1" width="10.6" height="1.3"/>
		<rect x="31.7" y="80.6" transform="matrix(0.8557 -0.5174 0.5174 0.8557 -36.72 30.832)" class="st1" width="10.6" height="1.3"/>
		<rect x="29" y="74" transform="matrix(0.9603 -0.279 0.279 0.9603 -19.4604 12.5266)" class="st1" width="10.6" height="1.3"/>
		
			<rect x="33.9" y="53.5" transform="matrix(0.2407 -0.9706 0.9706 0.2407 -30.8484 78.1345)" class="st1" width="1.3" height="10.6"/>
		<rect x="36.3" y="46.5" transform="matrix(0.43 -0.9028 0.9028 0.43 -25.6273 62.871)" class="st1" width="1.3" height="10.5"/>
		
			<rect x="40.5" y="40.4" transform="matrix(0.5413 -0.8409 0.8409 0.5413 -19.5728 55.5694)" class="st1" width="1.3" height="10.5"/>
		<rect x="46" y="35.4" transform="matrix(0.6755 -0.7374 0.7374 0.6755 -14.8193 47.619)" class="st1" width="1.3" height="10.5"/>
		
			<rect x="52.3" y="31.8" transform="matrix(0.8657 -0.5006 0.5006 0.8657 -11.4383 31.5072)" class="st1" width="1.3" height="10.5"/>
		<rect x="59" y="29.3" transform="matrix(0.9656 -0.26 0.26 0.9656 -6.9338 16.704)" class="st1" width="1.3" height="10.5"/>
		<rect x="94.8" y="65.4" class="st1" width="10.6" height="1.3"/>
		<rect x="28" y="65.4" class="st1" width="10.6" height="1.3"/>
	</g>
</g>
</svg>
