<?xml version="1.0" encoding="utf-8"?>
<!-- Generator: Adobe Illustrator 24.1.2, SVG Export Plug-In . SVG Version: 6.00 Build 0)  -->
<svg version="1.0" id="Layer_1" xmlns="http://www.w3.org/2000/svg" xmlns:xlink="http://www.w3.org/1999/xlink" x="0px" y="0px"
	 viewBox="0 0 133.4 133.4" style="enable-background:new 0 0 133.4 133.4;" xml:space="preserve">
<style type="text/css">
	.st0{fill:#FFE9A0;}
	.st1{fill:#0F1014;stroke:#0F1014;stroke-miterlimit:10;}
	.st2{fill:#0F1014;}
</style>
<g id="Layer_2_1_">
	<g id="Layer_1-2">
		<circle class="st0" cx="66.7" cy="66.7" r="66.7"/>
		<g>
			<g>
				<line class="st1" x1="53.1" y1="103.5" x2="53.1" y2="28.9"/>
				<polygon class="st2" points="56.8,101.2 53.1,102.8 49.4,101.2 53.1,110 				"/>
				<polygon class="st2" points="56.8,32.3 53.1,30.7 49.4,32.3 53.1,23.5 				"/>
			</g>
		</g>
	</g>
</g>
<g>
	<path class="st2" d="M77.1,71.1c2.9,7.7,3.6,19.4,6,27.9H57.9c2.6-8.5,4.2-20.2,7.1-27.9l-7.9,8.1c3.2-8.6,8.4-26.1,11.6-34.5
		l-7.5,8.1c3.6-9.5,6.4-20.1,9.9-29.4c3.5,9.2,6.6,21.7,10.2,31.2l-8.2-10.2C76.3,53,80.8,69.8,84,78.2L77.1,71.1z"/>
	<rect x="69.5" y="94.8" class="st2" width="2.2" height="15.2"/>
</g>
</svg>
